<svg xmlns="http://www.w3.org/2000/svg" width="463" height="326" viewBox="0 0 463 326">
    <defs>
        <linearGradient id="a" x1="99.619%" x2=".099%" y1="50.038%" y2="50.038%">
            <stop offset=".09%" stop-color="#F93E56"/>
            <stop offset="99.975%" stop-color="#FE6561"/>
        </linearGradient>
    </defs>
    <g fill="none" fill-rule="evenodd">
        <rect width="366" height="261" x="50" y="65" fill="#272A38" rx="9"/>
        <rect width="392" height="279" x="37" y="34" fill="#292D3C" rx="9"/>
        <g transform="translate(23)">
            <rect width="421" height="300" fill="#2E3343" rx="9"/>
            <path fill="#686E81" d="M9 0h403a9 9 0 0 1 9 9v10H0V9a9 9 0 0 1 9-9z"/>
            <circle cx="54" cy="242" r="4" fill="#F94057"/>
            <circle cx="127" cy="207" r="4" fill="#F94057"/>
            <circle cx="176" cy="218" r="4" fill="#F94057"/>
            <circle cx="13.5" cy="9.5" r="4.5" fill="#3B4256"/>
        </g>
        <path fill="#686E81" d="M55 47h1v229h-1z" opacity=".118"/>
        <path fill="#686E81" d="M56 275h286v1H56z" opacity=".4"/>
        <path fill="#3B4256" d="M56 199.034c28.5 0 28.5 53.732 57 53.732s28.5-51.704 57-51.704S198.5 270 227 270s28.5-95.297 57-95.297 28.5 88.2 57 88.2v-43.062c-28.5 0-28.5-82.648-57-82.648s-28.5 62.855-57 62.855-28.5-41.565-57-41.565-28.5 53.73-57 53.73S84.5 123 56 123v76.034z"/>
        <path fill="url(#a)" d="M0 153h285v-13.13c-28.5 0-28.5-87.87-57-87.87s-28.5 94.94-57 94.94-28.5-68.68-57-68.68-28.5 51.51-57 51.51S28.5 76.24 0 76.24V153z" transform="translate(56 123)"/>
        <g transform="translate(372 65)">
            <rect width="48" height="48" fill="#3B4256" rx="9"/>
            <path fill="#FFF" d="M35.477 22.613l-5.277 4.57 1.63 6.94c.232.98-.544 1.877-1.32 1.877-.233 0-.544-.081-.776-.245L23.914 32l-5.744 3.755a1.264 1.264 0 0 1-.776.245c-.855 0-1.63-.816-1.32-1.877l1.63-6.94-5.2-4.57c-1.01-.898-.388-2.53.854-2.613l6.751-.489 2.562-6.612c.233-.654.776-.899 1.32-.899.543 0 1.086.326 1.319.899l2.562 6.612 6.751.489c1.32.082 1.864 1.796.854 2.613"/>
        </g>
        <rect width="48" height="48" x="372" y="137" fill="#3B4256" rx="9"/>
        <rect width="48" height="48" x="372" y="209" fill="#3B4256" rx="9"/>
        <path fill="#FFF" d="M396 173c6.627 0 12-5.373 12-12s-5.373-12-12-12-12 5.373-12 12 5.373 12 12 12z"/>
        <path fill="#383F52" d="M400.2 159.8a1.5 1.5 0 1 0 0-3 1.5 1.5 0 0 0 0 3zM391.8 159.8a1.5 1.5 0 1 0 0-3 1.5 1.5 0 0 0 0 3zM395.911 164.3a7.035 7.035 0 0 1 5.556 2.71.9.9 0 0 0 1.418-1.11 8.835 8.835 0 0 0-6.974-3.4 8.828 8.828 0 0 0-6.58 2.932.9.9 0 0 0 1.338 1.204 7.029 7.029 0 0 1 5.242-2.336z"/>
        <path fill="#FFF" fill-rule="nonzero" d="M407.425 231.21a2.768 2.768 0 0 1-.582-.622c.036-.298.123-.589.256-.859.261-.64.556-1.368.227-2.054-.33-.687-1.09-.92-1.768-1.116a2.81 2.81 0 0 1-.813-.318 2.833 2.833 0 0 1-.134-.87c-.042-.695-.092-1.484-.694-1.964-.602-.479-1.372-.352-2.059-.241-.288.068-.586.09-.881.065a2.737 2.737 0 0 1-.491-.717c-.345-.61-.732-1.303-1.492-1.476-.759-.173-1.376.276-1.94.67-.234.194-.5.346-.785.45a2.684 2.684 0 0 1-.79-.45c-.564-.382-1.2-.843-1.94-.67-.74.173-1.15.866-1.492 1.476a2.837 2.837 0 0 1-.483.717 2.822 2.822 0 0 1-.885-.065c-.687-.111-1.461-.238-2.06.241-.597.48-.65 1.27-.693 1.963 0 .296-.044.59-.134.87a2.81 2.81 0 0 1-.813.319c-.671.195-1.43.418-1.767 1.116-.338.697-.035 1.414.226 2.054.132.27.22.558.257.855-.16.239-.357.45-.583.625-.495.449-1.112 1.024-1.112 1.79 0 .768.617 1.343 1.112 1.791.226.176.423.387.583.625a2.684 2.684 0 0 1-.257.855c-.261.64-.556 1.369-.226 2.055.33.686 1.096.92 1.767 1.116.286.063.56.17.813.318.09.281.135.575.134.87.042.694.092 1.484.694 1.963.602.48 1.372.353 2.059.242.288-.068.586-.09.881-.065.201.211.367.453.491.717.345.613.733 1.303 1.492 1.476.759.172 1.376-.276 1.94-.671.234-.193.5-.345.786-.449.286.104.553.255.79.449.479.333 1.011.709 1.617.709.109 0 .217-.013.322-.038.767-.173 1.15-.863 1.492-1.476.123-.263.286-.504.483-.717.297-.025.595-.003.885.065.687.111 1.461.238 2.06-.242.597-.479.651-1.269.693-1.963 0-.295.045-.589.134-.87a2.81 2.81 0 0 1 .813-.318c.671-.196 1.43-.418 1.768-1.116.337-.698.034-1.415-.227-2.055a2.684 2.684 0 0 1-.256-.855c.159-.237.354-.448.578-.625.499-.448 1.116-1.004 1.116-1.79s-.617-1.342-1.112-1.79z"/>
        <g transform="translate(416 85)">
            <path stroke="#585E6F" d="M47 4H4"/>
            <circle cx="4" cy="4" r="4" fill="#585E6F"/>
        </g>
        <g transform="matrix(-1 0 0 1 60 234)">
            <path stroke="#585E6F" d="M59.5 4H4"/>
            <circle cx="4" cy="4" r="4" fill="#585E6F"/>
        </g>
        <g transform="translate(416 157)">
            <path stroke="#585E6F" d="M47 4H4"/>
            <circle cx="4" cy="4" r="4" fill="#585E6F"/>
        </g>
        <g transform="translate(416 229)">
            <path stroke="#585E6F" d="M47 4H4"/>
            <circle cx="4" cy="4" r="4" fill="#585E6F"/>
        </g>
    </g>
</svg>
