<svg xmlns="http://www.w3.org/2000/svg" width="287" height="204" viewBox="0 0 287 204">
    <defs>
        <linearGradient id="a" x1="2.252%" x2="98.017%" y1="50%" y2="50%">
            <stop offset="0%" stop-color="#2A2E3E"/>
            <stop offset="100%" stop-color="#2F3444"/>
        </linearGradient>
        <linearGradient id="b" x1="99.619%" x2=".099%" y1="50.038%" y2="50.038%">
            <stop offset=".09%" stop-color="#F93E56"/>
            <stop offset="99.975%" stop-color="#FE6561"/>
        </linearGradient>
    </defs>
    <g fill="none" fill-rule="evenodd">
        <g transform="translate(68 141)">
            <rect width="219" height="63" fill="url(#a)" rx="14"/>
            <rect width="82" height="12" x="81" y="16" fill="#3B4256" rx="6"/>
            <rect width="147" height="12" x="16" y="35" fill="#3B4256" rx="6"/>
            <circle cx="187" cy="32" r="16" fill="url(#b)"/>
            <path fill="#2B2F3F" d="M191.945 31.335l-2.235 1.868.69 2.834c.099.4-.23.767-.559.767a.625.625 0 0 1-.329-.1l-2.465-1.534-2.434 1.534a.549.549 0 0 1-.328.1.58.58 0 0 1-.559-.767l.69-2.834-2.202-1.868c-.428-.366-.165-1.033.361-1.067l2.86-.2 1.085-2.7c.1-.268.33-.368.56-.368.23 0 .46.133.558.367l1.085 2.701 2.86.2c.56.034.79.734.362 1.067"/>
        </g>
        <g>
            <rect width="284" height="125" fill="url(#a)" rx="14"/>
            <rect width="81" height="16" x="94" y="24" fill="#3B4256" rx="8"/>
            <rect width="166" height="16" x="94" y="48" fill="#3B4256" rx="8"/>
            <rect width="166" height="16" x="94" y="72" fill="#3B4256" rx="8"/>
        </g>
        <g transform="translate(24 24)">
            <path fill="#FB4D5A" d="M32.5 16H45c5.523 0 10 4.477 10 10v3a7 7 0 0 1 0 14v3c0 5.523-4.477 10-10 10H17c-5.523 0-10-4.477-10-10v-3a7 7 0 0 1 0-14v-3c0-5.523 4.477-10 10-10h12.5v-4.189a6 6 0 1 1 3 0V16z"/>
            <path fill="#383F52" d="M33.87 5.653l-1.32 1.143.407 1.735c.059.245-.135.469-.33.469a.36.36 0 0 1-.193-.061L30.978 8l-1.436.939a.316.316 0 0 1-.194.061.353.353 0 0 1-.33-.47l.408-1.734-1.3-1.143c-.252-.224-.097-.632.213-.653l1.688-.122.64-1.653c.06-.164.195-.225.33-.225.136 0 .272.082.33.225l.641 1.653L33.656 5c.33.02.466.45.213.653"/>
            <circle cx="44" cy="32" r="4" fill="#383F52"/>
            <circle cx="19" cy="32" r="4" fill="#383F52"/>
            <rect width="12" height="4" x="25" y="42" fill="#383F52" rx="2"/>
        </g>
    </g>
</svg>
