<svg xmlns="http://www.w3.org/2000/svg" width="248" height="168" viewBox="0 0 248 168">
    <defs>
        <linearGradient id="a" x1="99.619%" x2=".099%" y1="50.038%" y2="50.038%">
            <stop offset=".09%" stop-color="#F93E56"/>
            <stop offset="99.975%" stop-color="#FE6561"/>
        </linearGradient>
    </defs>
    <g fill="none" fill-rule="evenodd">
        <rect width="224" height="144" y="24" fill="#2E3343" rx="7"/>
        <path fill="url(#a)" fill-rule="nonzero" d="M99.287 43.96a11.845 11.845 0 0 1-2.47-2.675 11.575 11.575 0 0 1 1.09-3.698c1.104-2.757 2.356-5.893.958-8.848-1.397-2.955-4.615-3.962-7.491-4.804a11.802 11.802 0 0 1-3.445-1.37 12.377 12.377 0 0 1-.569-3.747c-.179-2.988-.39-6.389-2.941-8.453-2.551-2.063-5.818-1.518-8.727-1.04a11.715 11.715 0 0 1-3.737.281 11.796 11.796 0 0 1-2.08-3.087C68.412 3.894 66.771.906 63.554.164 60.336-.58 57.72 1.352 55.33 3.052A11.33 11.33 0 0 1 52 4.984a11.33 11.33 0 0 1-3.347-1.932c-2.39-1.65-5.087-3.631-8.223-2.888-3.136.742-4.875 3.73-6.321 6.355a12.23 12.23 0 0 1-2.048 3.087 11.778 11.778 0 0 1-3.753-.28c-2.91-.48-6.192-1.024-8.727 1.04-2.535 2.063-2.762 5.464-2.941 8.452a12.377 12.377 0 0 1-.569 3.747 11.802 11.802 0 0 1-3.445 1.37c-2.843.842-6.061 1.8-7.491 4.804-1.43 3.004-.146 6.091.959 8.848.562 1.157.93 2.401 1.088 3.681a11.486 11.486 0 0 1-2.47 2.691C2.617 45.891 0 48.367 0 51.67c0 3.3 2.616 5.777 4.713 7.709.959.757 1.793 1.665 2.47 2.69a11.692 11.692 0 0 1-1.09 3.682c-1.104 2.756-2.356 5.893-.958 8.848 1.397 2.955 4.648 3.962 7.491 4.804 1.212.271 2.374.734 3.445 1.37.38 1.211.573 2.476.569 3.747.179 2.988.39 6.389 2.941 8.452 2.552 2.064 5.818 1.519 8.727 1.04a11.715 11.715 0 0 1 3.737-.28c.85.91 1.553 1.952 2.08 3.087 1.462 2.64 3.104 5.612 6.321 6.355 3.218.743 5.834-1.188 8.223-2.889A11.33 11.33 0 0 1 52 98.353a11.33 11.33 0 0 1 3.347 1.931c2.032 1.436 4.29 3.054 6.858 3.054a5.7 5.7 0 0 0 1.365-.165c3.25-.743 4.875-3.714 6.321-6.355a12.23 12.23 0 0 1 2.048-3.087 11.778 11.778 0 0 1 3.754.28c2.908.479 6.19 1.024 8.726-1.04 2.535-2.063 2.762-5.464 2.941-8.452a12.377 12.377 0 0 1 .569-3.747 11.802 11.802 0 0 1 3.445-1.37c2.844-.842 6.061-1.8 7.491-4.804 1.43-3.005.146-6.092-.959-8.848a11.692 11.692 0 0 1-1.089-3.682 11.767 11.767 0 0 1 2.454-2.69c2.113-1.932 4.729-4.326 4.729-7.71 0-3.384-2.616-5.777-4.713-7.709z" transform="translate(144)"/>
        <path fill="#383F52" d="M211.324 50.22l-6.816 5.693 2.105 8.644c.3 1.22-.702 2.338-1.704 2.338-.3 0-.703-.1-1.002-.305l-7.519-4.677-7.419 4.677c-.3.204-.602.305-1.002.305-1.104 0-2.106-1.016-1.704-2.338l2.104-8.644-6.715-5.694c-1.305-1.118-.502-3.151 1.102-3.254l8.72-.609 3.31-8.236c.3-.815 1.002-1.12 1.704-1.12a1.85 1.85 0 0 1 1.704 1.12l3.31 8.236 8.72.61c1.705.102 2.407 2.237 1.102 3.253"/>
        <path fill="#585E6F" fill-rule="nonzero" d="M93.086 85.132c-.056.038-.11.079-.161.123-.245.2-.49.411-.705.631l-.044.05c-.191.224-.367.46-.539.7l-.029.043a6.912 6.912 0 0 0-.225.426l-.04.083a2.501 2.501 0 0 0-.16.377 4.97 4.97 0 0 0-.128.44l-.054.221a1.958 1.958 0 0 0-.03.216v.053a3.427 3.427 0 0 0 0 .92v.084c.015.115.036.23.064.343v.058c.03.103.059.206.083.27.067.204.154.4.26.587l.054.098c.103.17.217.334.342.49l.04.043.049.054c.1.11.206.215.318.314l.049.039c.089.075.182.145.279.21.154.106.318.197.49.274l.058.025c.091.04.186.07.284.093h.024c.2.041.407-.007.568-.132a.68.68 0 0 0 .26-.49v-.196-.23l.039-.396.054-.304c.034-.155.085-.306.151-.45.025-.044.05-.088.069-.127l.034-.044.054-.069.093-.093.127-.093h.03l.166-.108a2.54 2.54 0 0 0 .23-.137c.106-.041.208-.094.304-.156l.17-.089.28-.146.568-.314c.524-.324.995-.73 1.395-1.199a5.037 5.037 0 0 0 .95-1.684 4.7 4.7 0 0 0 .234-1.767c-.03-.504-.142-1-.332-1.468a4.406 4.406 0 0 0-1.195-1.675 3.31 3.31 0 0 0-.43-.318l-.064-.039a1.743 1.743 0 0 0-.245-.132.68.68 0 0 0-.925.524l-.034.2c0 .05 0 .113-.035.186l-.044.22c-.083.431-.2.855-.347 1.268-.07.195-.159.381-.265.559-.088.145-.194.28-.313.4a3.755 3.755 0 0 1-.396.348c-.157.118-.333.24-.529.363l-.299.147-.078.049-.122.078-.26.176-.142.073zm.358-8.63a6.49 6.49 0 0 1 .039 2.448 6.966 6.966 0 0 1-.98 2.492 8.229 8.229 0 0 1-1.678 1.928l-.725.553-.357.265-.24.171c-.117.107-.245.2-.382.28-.1.088-.204.171-.313.249a2.593 2.593 0 0 1-.21.186l-.054.044a1.997 1.997 0 0 1-.152.156s-.03.03-.044.05l-.127.16c-.02.041-.04.08-.064.118l-.04.069v.049c0 .064-.038.122-.068.19-.073.241-.12.49-.137.74v.45l-.02.593c0 .142 0 .264.03.352l.034.27a.72.72 0 0 1-.714.807h-.054a2.29 2.29 0 0 1-.377-.069h-.074a4.249 4.249 0 0 1-1.165-.504l-.068-.039a4.94 4.94 0 0 1-.49-.352l-.088-.069-.044-.04a6.256 6.256 0 0 1-.558-.586l-.088-.118a4.371 4.371 0 0 1-.46-.73 5.29 5.29 0 0 1-.167-.357l-.034-.083a3.96 3.96 0 0 1-.147-.44l-.034-.123a4.753 4.753 0 0 1-.186-1.243v-.103a2.57 2.57 0 0 1 0-.279l.03-.313c0-.21.048-.421.088-.637.03-.18.077-.36.137-.533l.039-.127c.068-.216.142-.421.22-.627l.024-.054c.182-.367.387-.734.603-1.087l.039-.058c.264-.353.553-.695.851-1.023.059-.068.12-.131.187-.191l.18-.172c.103-.097.216-.195.329-.298l.195-.176.044-.04.421-.337c.26-.22.49-.436.696-.642.185-.188.356-.39.514-.602a3.48 3.48 0 0 0 .386-.685 4.86 4.86 0 0 0 .274-.886c.126-.626.205-1.261.235-1.9v-.322V72.709a.724.724 0 0 1 .925-.68c.12.03.236.072.348.122l.093.039c.222.097.437.212.641.343a6.07 6.07 0 0 1 1.958 2.036 6.32 6.32 0 0 1 .779 1.933zm21.2 27.795a8.111 8.111 0 0 0-7.871-10.07h-32.64a2.13 2.13 0 0 0-2.13 2.247c.257 3.89.923 7.74 1.988 11.489a15.576 15.576 0 0 0 4.547 7.303h-2.81a2.367 2.367 0 1 0 0 4.734h26.62a2.367 2.367 0 0 0 0-4.734h-2.815a15.581 15.581 0 0 0 3.603-4.816h3.637a8.111 8.111 0 0 0 7.871-6.153zm-4.768-1.185a3.192 3.192 0 0 1-3.103 2.448h-2.07c.498-2.11.876-4.246 1.13-6.398h.94a3.196 3.196 0 0 1 3.103 3.97v-.02z"/>
        <g fill="#585E6F" transform="translate(32 93)">
            <rect width="4" height="24" x="10" rx="2"/>
            <rect width="4" height="24" x="10" rx="2" transform="rotate(90 12 12)"/>
        </g>
    </g>
</svg>
