<svg xmlns="http://www.w3.org/2000/svg" xmlns:xlink="http://www.w3.org/1999/xlink" width="110" height="28" viewBox="0 0 110 28">
    <defs>
        <path id="a" d="M0 .04h109.968v27.702H0z"/>
    </defs>
    <g fill="none" fill-rule="evenodd">
        <path fill="#767B89" d="M70.493 7.31c-3.036-.003-6.072 0-9.107-.006-.205 0-.276.062-.275.297.01 1.428.005 2.857.005 4.286 0 .081.007.162.012.282H70.26c.19 0 .383.016.57-.01.709-.097 1.001-.303 1.116-.85.202-.97.216-1.942.057-2.917-.09-.552-.379-.916-.898-1.019-.201-.04-.408-.062-.612-.062z"/>
        <g>
            <mask id="b" fill="#fff">
                <use xlink:href="#a"/>
            </mask>
            <path fill="#767B89" d="M105.317 17.756c.009.218-.044.289-.282.288-2.402-.01-4.804-.002-7.206-.008-.926-.003-1.854.012-2.776-.051-1.406-.096-2.613-.649-3.55-1.711-.605-.686-.917-1.503-1.074-2.386-.228-1.29-.227-2.586-.081-3.88.166-1.472.65-2.8 1.913-3.736 1.059-.785 2.27-1.101 3.573-1.105 3.012-.01 6.024-.004 9.036-.003.073 0 .147.008.235.014v1.82h-9.13c-.662 0-1.306.1-1.907.382-.89.417-1.383 1.149-1.58 2.072-.29 1.364-.287 2.747-.077 4.114.196 1.278.928 2.266 2.563 2.547.332.057.673.083 1.01.084 3.019.006 6.038.006 9.058-.001.216 0 .284.053.275.27-.017.429-.017.86 0 1.29M89.835 5.533c-2.576 4.11-5.152 8.22-7.735 12.327-.052.083-.18.168-.275.17-.67.014-1.34.008-2.01.007-.036 0-.071-.008-.152-.02.42-.657.79-1.305 1.23-1.902.288-.39.267-.654-.01-1.056-2.224-3.215-4.416-6.451-6.618-9.681-.037-.055-.068-.113-.123-.204.104-.007.182-.016.259-.016.58-.002 1.16.007 1.74-.006.183-.004.284.062.383.206 1.878 2.738 3.761 5.474 5.643 8.21.046.066.094.132.163.227.066-.08.127-.139.17-.209 1.741-2.746 3.48-5.493 5.215-8.244.087-.138.178-.191.341-.189.58.01 1.16.004 1.74.004.072 0 .145.007.257.012-.084.141-.149.254-.218.364m-16.25 5.904c-.384.96-1.105 1.535-2.136 1.708-.368.061-.747.08-1.122.081-2.99.007-5.98.004-8.97.004h-.334v.292c0 1.425-.004 2.85.004 4.275.002.196-.052.255-.252.25a25.122 25.122 0 0 0-1.446-.001c-.202.006-.269-.045-.268-.256.01-1.685.005-3.37.005-5.054 0-1.952-.007-3.903.006-5.855.004-.605.223-1.135.818-1.402.28-.126.604-.222.909-.223 3.329-.015 6.658-.03 9.987.002 1.235.012 2.227.532 2.76 1.702.26.57.32 1.185.344 1.802.036.907.038 1.813-.306 2.675M57.605 6.869c-.095.103-.38.042-.582.043l-6.756.001c-.37 0-.37-.073-.37.354V17.71c0 .33 0 .33-.324.33-.437 0-.874-.01-1.31.003-.202.006-.257-.06-.256-.253.007-1.737.004-3.474.004-5.21V7.258c0-.345-.002-.346-.349-.346-2.41 0-4.82-.002-7.23.005-.213.001-.266-.06-.26-.262.013-.487.004-.975.004-1.476h17.49c0 .375.005.736 0 1.098-.004.204.048.473-.06.592M38.668 18.042a22.403 22.403 0 0 0-1.356 0c-.208.006-.265-.058-.265-.263.007-3.34.005-6.68.005-10.019v-.384l-.075-.02c-.059.051-.12.1-.176.154l-9.531 9.304c-.316.308-.62.627-.947.922-1.005.91-2.277.268-2.595-.799a2.81 2.81 0 0 1-.115-.786c-.007-3.57-.003-7.14-.01-10.71 0-.23.071-.291.295-.283.43.016.859.004 1.288.004.31 0 .31 0 .31.297v10.477l.059.023c.063-.057.129-.11.189-.17 3.299-3.235 6.594-6.473 9.9-9.701a7.57 7.57 0 0 1 1.075-.841c.728-.49 1.81-.129 2.067.84.088.333.138.686.139 1.03.01 3.555.004 7.11.01 10.665 0 .21-.063.266-.267.26m-17.563 1.865c-.169.541-.167.541-.737.541h-.91c.051-.222.094-.415.141-.606.13-.533.042-1.043-.164-1.542-.081-.198-.206-.268-.429-.267-3.849.007-7.697.008-11.546 0-.358-.001-.73-.027-1.071-.123-.739-.208-1.095-.732-1.142-1.575-.008-.134-.007-.267-.007-.401V5.185h1.88v.297c-.002 3.51-.002 7.02-.007 10.53 0 .196.061.279.273.278 3.472-.004 6.944-.005 10.416.003.254 0 .232-.135.232-.295l-.001-10.509v-.325h.413c.399 0 .798.011 1.197-.005.217-.008.28.058.278.273-.007 2.545-.004 5.09-.004 7.636 0 .972.005 1.945-.004 2.917-.002.211.067.296.285.283.225-.013.452.004.678-.005.136-.005.203.041.236.175.283 1.157.352 2.313-.007 3.469m88.862-17.3c0-.406-.088-.797-.286-1.154C109.148.49 108.308.04 107.204.04H2.585C1.153.07.002 1.208.002 2.609c-.003 5.997-.003 11.993 0 17.99.001.673.247 1.26.719 1.75.532.552 1.194.81 1.96.81 4.528.002 9.054.001 13.58.002.413 0 .645.197.734.6.08.357-.007.695-.114 1.026-.322.993-.877 1.867-1.462 2.724-.045.065-.088.132-.131.198.026.019.037.034.049.034.037.001.075 0 .111-.006 1.823-.35 3.591-.869 5.26-1.685 1.373-.672 2.64-1.49 3.674-2.62a.765.765 0 0 1 .634-.277c27.333.006 54.667.005 82 .005.12 0 .241.002.362 0 1.425-.02 2.588-1.165 2.589-2.561.002-5.997.001-11.994 0-17.99" mask="url(#b)"/>
        </g>
    </g>
</svg>
