<svg xmlns="http://www.w3.org/2000/svg" xmlns:xlink="http://www.w3.org/1999/xlink" width="106" height="28" viewBox="0 0 106 28">
    <defs>
        <path id="a" d="M12.052.068C6.172.068.164 1.11.164 8.845v4.698c0 7.738 6.007 8.782 11.888 8.782h5.143c5.884 0 11.896-1.044 11.896-8.782V8.845c0-7.734-6.012-8.777-11.896-8.777h-5.143zm-8.11 13.269V9.054c0-4.865 2.808-5.863 7.022-5.863h7.327c4.21 0 7.016.998 7.016 5.863v4.283c0 4.867-2.806 5.866-7.016 5.866h-7.327c-4.214 0-7.022-.999-7.022-5.866z"/>
        <path id="c" d="M1.975.128C.82.128.062.823.062 1.831v11.783c.001 2.913.858 4.874 2.237 6.19 2.275 2.223 6.02 2.638 9.716 2.638h13.634l4.123 4.106c.716.712 1.717.681 2.506-.105.825-.821.827-1.806.195-2.436L29.052 20.6V8.956c-.002-2.913-.858-4.874-2.238-6.19C24.539.544 20.794.129 17.098.129H1.975zM5.608 18.04a10.99 10.99 0 0 1-.257-.222c-.864-.838-1.41-2.147-1.443-4.168V3.316l15.16.009c2.001.07 3.447.449 4.436 1.205.026.02.2.168.259.222.864.84 1.408 2.148 1.442 4.169v10.32l-15.159.004c-2.002-.07-3.448-.449-4.438-1.206z"/>
        <path id="e" d="M1.975.128C.832.128.08.807.062 1.796V13.7c.018 2.865.871 4.801 2.237 6.103 2.275 2.224 6.02 2.639 9.716 2.639h13.634l4.123 4.106c.716.712 1.717.681 2.506-.105.825-.821.827-1.806.195-2.436L29.052 20.6V8.956c-.002-2.913-.858-4.874-2.238-6.19C24.539.544 20.794.129 17.098.129H1.975zM5.608 18.04a10.99 10.99 0 0 1-.257-.222c-.864-.838-1.41-2.147-1.443-4.168V3.316l15.16.009c2.001.07 3.447.449 4.436 1.205.026.02.2.168.259.222.864.84 1.408 2.148 1.442 4.169v10.32l-15.159.004c-2.002-.07-3.448-.449-4.438-1.206z"/>
        <path id="g" d="M1.857.089h-.01C.73.088 0 .8 0 1.948v18.573c0 1.149.73 1.861 1.847 1.861h.02c1.116 0 1.846-.712 1.846-1.86V1.947c0-1.148-.73-1.86-1.847-1.86h-.01z"/>
        <path id="i" d="M.005.1h26.626v21.97H.005z"/>
        <path id="k" d="M11.052.1C2.067.1.259 2.182.259 5.536v1.242c0 4.117 1.95 5.72 6.947 5.72h10.951c4.401 0 4.742 1.268 4.742 3.06v.165c0 2.603-.68 3.265-6.936 3.265 0 0-7.987-.004-8.17-.011v.003c-2.08-.054-3.396-.295-4.005-1.36-.057-.112-.132-.27-.132-.27-.225-.631-.851-1.137-1.84-1.137-1.09 0-1.744.572-1.803 1.492-.006.062-.015.195.002.305.337 2.072 1.794 3.854 7.962 4.049v-.007c.735.017 8.768.019 8.768.019 3.927 0 9.853 0 9.886-6.177V15.7c-.027-5.82-3.944-6.281-9.057-6.281H8.203c-3.56 0-4.21-.89-4.21-2.643V5.99c0-2.337 1.027-2.809 6.107-2.809h6.194c3.002 0 4.806.067 5.555 1.378.058.112.132.27.132.27.225.631.851 1.136 1.841 1.136 1.089 0 1.743-.571 1.802-1.492a1.362 1.362 0 0 0-.001-.304C25.265 1.973 23.652.1 16.499.1h-5.447z"/>
        <path id="m" d="M10.73.102C2.024.152.259 2.222.259 5.535v1.242c0 4.117 1.95 5.72 6.947 5.72h10.951c4.401 0 4.742 1.268 4.742 3.06v.165c0 2.603-.68 3.265-6.936 3.265 0 0-7.987-.004-8.17-.011v.003c-2.08-.054-3.396-.295-4.005-1.36-.057-.112-.132-.27-.132-.27-.225-.631-.851-1.137-1.84-1.137-1.09 0-1.744.572-1.803 1.492-.006.062-.015.195.002.305.337 2.072 1.794 3.854 7.962 4.049v-.007c.735.017 8.768.019 8.768.019 3.927 0 9.853 0 9.886-6.177V15.7c-.027-5.82-3.944-6.281-9.057-6.281H8.203c-3.56 0-4.21-.89-4.21-2.643V5.99c0-2.337 1.027-2.809 6.107-2.809h6.194c3.002 0 4.806.067 5.555 1.378.058.112.132.27.132.27.225.631.851 1.136 1.841 1.136 1.089 0 1.743-.571 1.802-1.492a1.362 1.362 0 0 0-.001-.304C25.27 2 23.693.149 16.769.102h-6.04z"/>
    </defs>
    <g fill="none" fill-rule="evenodd" opacity=".7">
        <path fill="#3A393B" d="M56.318.168c-5.88 0-11.888 1.044-11.888 8.778v4.698c0 7.738 6.007 8.782 11.888 8.782h5.142c5.885 0 11.896-1.044 11.896-8.782V8.946c0-7.734-6.01-8.778-11.896-8.778h-5.142zm-8.11 13.27V9.155c0-4.865 2.808-5.863 7.022-5.863h7.327c4.21 0 7.015.998 7.015 5.863v4.283c0 4.867-2.806 5.866-7.015 5.866H55.23c-4.214 0-7.022-1-7.022-5.866z"/>
        <g transform="translate(44.266 .1)">
            <mask id="b" fill="#fff">
                <use xlink:href="#a"/>
            </mask>
            <path fill="#3A393B" d="M.164 22.325H29.09V.067H.164z" mask="url(#b)"/>
            <path fill="#3B4256" d="M.164 22.325H29.09V.067H.164z" mask="url(#b)"/>
        </g>
        <path fill="#3A393B" d="M11.774.397c-1.156 0-1.913.695-1.913 1.703v11.783c.002 2.913.858 4.874 2.238 6.19 2.275 2.223 6.02 2.638 9.715 2.638h13.635l4.122 4.106c.716.712 1.717.681 2.506-.105.825-.821.827-1.806.195-2.436l-3.421-3.407V9.225c-.002-2.913-.858-4.874-2.238-6.19C34.338.813 30.593.398 26.897.398H11.774zm3.634 17.911c-.026-.02-.199-.167-.258-.222-.864-.838-1.41-2.146-1.443-4.168V3.585l15.16.009c2.002.07 3.447.449 4.437 1.205.025.02.199.168.258.222.864.84 1.409 2.148 1.442 4.169v10.32l-15.159.004c-2.002-.07-3.448-.449-4.437-1.206z"/>
        <g transform="translate(9.8 .27)">
            <mask id="d" fill="#fff">
                <use xlink:href="#c"/>
            </mask>
            <path fill="#3A393B" d="M.062 27.26h33.043V.128H.062z" mask="url(#d)"/>
        </g>
        <g transform="translate(9.8 .27)">
            <mask id="f" fill="#fff">
                <use xlink:href="#e"/>
            </mask>
            <path fill="#3B4256" d="M.062 27.26h33.043V.128H.062z" mask="url(#f)"/>
        </g>
        <path fill="#3A393B" d="M1.857.19l-.01-.001C.73.189 0 .901 0 2.049v18.574c0 1.148.73 1.86 1.847 1.86h.02c1.115 0 1.846-.712 1.846-1.86V2.05c0-1.148-.73-1.86-1.847-1.86h-.01"/>
        <g transform="translate(0 .1)">
            <mask id="h" fill="#fff">
                <use xlink:href="#g"/>
            </mask>
            <path fill="#3A393B" d="M0 22.383h3.713V.088H0z" mask="url(#h)"/>
            <path fill="#3B4256" d="M0 22.383h3.713V.088H0z" mask="url(#h)"/>
        </g>
        <g transform="translate(78.732 .27)">
            <mask id="j" fill="#fff">
                <use xlink:href="#i"/>
            </mask>
            <path fill="#3A393B" d="M11.052.1C2.067.1.259 2.182.259 5.536v1.242c0 4.117 1.95 5.72 6.947 5.72h10.951c4.401 0 4.742 1.268 4.742 3.06v.165c0 2.603-.68 3.265-6.936 3.265 0 0-7.986-.004-8.17-.011v.003c-2.08-.054-3.396-.295-4.005-1.36-.057-.112-.132-.27-.132-.27-.225-.631-.851-1.137-1.841-1.137-1.089 0-1.743.572-1.802 1.492-.006.062-.015.195.002.305.337 2.072 1.795 3.854 7.962 4.049v-.007c.735.017 8.768.019 8.768.019 3.938 0 9.886 0 9.886-6.228v-.08c0-5.877-3.926-6.342-9.057-6.342h-9.37c-3.56 0-4.21-.89-4.21-2.643v-.788c0-2.336 1.027-2.808 6.106-2.808h6.194c3.002 0 4.806.067 5.555 1.378.057.112.132.27.132.27.225.631.851 1.136 1.841 1.136 1.089 0 1.743-.571 1.802-1.492a1.36 1.36 0 0 0-.001-.304C25.265 1.972 23.652.1 16.5.1h-5.448z" mask="url(#j)"/>
        </g>
        <g transform="translate(78.732 .27)">
            <mask id="l" fill="#fff">
                <use xlink:href="#k"/>
            </mask>
            <path fill="#3A393B" d="M-.002 22.07h26.633V.102H-.002z" mask="url(#l)"/>
        </g>
        <g transform="translate(78.732 .27)">
            <mask id="n" fill="#fff">
                <use xlink:href="#m"/>
            </mask>
            <path fill="#3B4256" d="M-.002 22.07h26.633V.102H-.002z" mask="url(#n)"/>
        </g>
    </g>
</svg>
