<svg xmlns="http://www.w3.org/2000/svg" xmlns:xlink="http://www.w3.org/1999/xlink" width="85" height="28" viewBox="0 0 85 28">
    <defs>
        <path id="a" d="M.089.12h60.234v16.604H.09z"/>
        <path id="c" d="M0 .12h20.88v1.039H0z"/>
    </defs>
    <g fill="none" fill-rule="evenodd">
        <g transform="translate(24.701 .006)">
            <mask id="b" fill="#fff">
                <use xlink:href="#a"/>
            </mask>
            <path fill="#767B89" d="M10.86 16.712V6.977l-.136-.032c-.937 1.375-1.876 2.75-2.81 4.127-1.175 1.734-2.353 3.467-3.515 5.21-.207.312-.434.448-.819.44-1.125-.027-2.25-.01-3.491-.01.952-1.391 1.833-2.683 2.719-3.97C5.455 8.89 8.115 5.047 10.74 1.181c.477-.701 1.1-1.036 1.892-1.04 3.234-.018 6.468-.004 9.702 0 .037 0 .075.026.16.057v9.547c.213-.266.324-.388.417-.523 1.8-2.603 3.605-5.201 5.39-7.814.593-.87 1.363-1.294 2.428-1.286 2.898.024 5.797.009 8.695.009h.701v13.724c1.75 0 3.429.093 5.093-.029 1.441-.105 2.463-1.396 2.495-2.94.037-1.743.039-3.489.004-5.232-.032-1.62-1.035-2.609-2.652-2.665-.856-.03-1.714-.006-2.654-.006V.16c.207-.012.348-.026.49-.026 2.71-.002 5.42-.035 8.128.01 1.772.03 3.497.394 5.11 1.16 2.62 1.243 4.047 3.317 4.172 6.225.068 1.584-.14 3.146-.797 4.607-1.197 2.667-3.432 3.912-6.18 4.377-.864.146-1.754.19-2.632.191-7.162.015-14.323.009-21.485.008-.165 0-.33-.014-.538-.023V6.764c-.192.224-.298.326-.379.445-1.906 2.783-3.816 5.563-5.71 8.355-.524.774-1.183 1.17-2.149 1.16-3.149-.03-6.299-.012-9.581-.012" mask="url(#b)"/>
        </g>
        <path fill="#767B89" d="M13.042 19.679v8.091h-2.505v-6.112l-.133-.023c-.368.806-.738 1.61-1.104 2.418-.501 1.104-1.015 2.203-1.489 3.32-.148.349-.352.417-.704.466-1.095.152-1.722-.22-2.183-1.288-.733-1.7-1.674-3.31-2.636-4.938v6.162H.01V19.68c1.37 0 2.73-.016 4.087.021.17.005.394.264.489.457.682 1.383 1.338 2.78 2.057 4.288.615-1.322 1.249-2.516 1.726-3.77.316-.828.77-1.083 1.619-1.015.996.08 2.004.019 3.054.019M84.889 19.679v8.098h-2.453v-6.299c-.151.257-.236.375-.295.506-.803 1.771-1.612 3.54-2.395 5.32-.165.374-.374.481-.786.543-1.108.164-1.684-.278-2.134-1.283-.75-1.676-1.657-3.281-2.613-4.903v6.124h-2.288v-8.104c1.389 0 2.767-.011 4.144.019.134.003.305.24.386.406.69 1.406 1.361 2.82 2.087 4.333.68-1.46 1.338-2.81 1.932-4.189.202-.469.46-.598.943-.583 1.132.036 2.265.012 3.472.012M63.918 25.867h.82c.272 0 .546.007.819-.003.677-.022 1.048-.369 1.076-1.046.025-.609.015-1.22.01-1.829-.007-.799-.36-1.229-1.159-1.264a39.41 39.41 0 0 0-3.086-.002c-.7.024-1.157.428-1.178.992-.026.714-.028 1.43.001 2.143.026.633.416.987 1.06 1.004.545.015 1.091.003 1.637.005m.001 2.009c-.881 0-1.763.003-2.644 0-1.62-.008-2.4-.781-2.404-2.39-.003-1.134 0-2.268.005-3.402.008-1.423.535-2.184 1.96-2.267a55.085 55.085 0 0 1 6.274.01c1.31.073 1.881.89 1.888 2.217.007 1.156.013 2.31.004 3.466-.013 1.568-.81 2.357-2.376 2.365-.902.004-1.804 0-2.707 0M30 25.849c1.433 0 2.812.024 4.19-.012.604-.015.947-.432.978-1.099.03-.648.01-1.299.004-1.948-.006-.629-.38-1.032-.95-1.055-1.395-.058-2.793-.02-4.223-.02v4.134zm-2.345-6.165c2.573 0 5.09-.046 7.603.018 1.538.038 2.26.895 2.26 2.427.002 1.155.015 2.31-.003 3.465-.02 1.389-.741 2.185-2.116 2.208-2.497.043-4.994.016-7.492.015-.078 0-.157-.036-.252-.059v-8.074zM24.256 22.894v1.873h-5.67v1.169h5.91v1.838h-8.251v-8.06h8.261v1.956H18.59v1.224zM55.587 19.97l-3.977 3.572 4.468 4.279c-1.176 0-2.196.014-3.216-.014-.177-.005-.382-.154-.518-.292-.736-.748-1.496-1.478-2.165-2.284-.508-.611-1.085-.686-1.846-.525l-.142 3.06h-2.32v-8.053h2.456v2.804c.754.143 1.336.09 1.835-.526.566-.7 1.212-1.338 1.859-1.966.184-.18.487-.32.742-.331.881-.04 1.765-.015 2.648-.015l.176.29"/>
        <g transform="translate(0 15.646)">
            <mask id="d" fill="#fff">
                <use xlink:href="#c"/>
            </mask>
            <path fill="#767B89" d="M.95 1.139c-.168 0-.372.055-.496-.02C.264 1.006.036.818.001.629-.022.499.236.276.413.17.539.095.74.138.908.138h19.03c.146 0 .334-.052.432.019.195.14.342.35.51.53-.175.15-.332.33-.529.44-.112.062-.287.012-.434.012H.95z" mask="url(#d)"/>
        </g>
        <path fill="#767B89" d="M18.762 3.297l9.451.001c.188 0 .412-.042.556.043.174.103.39.325.384.488-.005.159-.247.348-.427.448-.13.072-.329.022-.496.022H9.2c-.125 0-.282.047-.37-.01-.202-.132-.37-.315-.551-.476.175-.171.33-.379.535-.5.125-.074.328-.016.497-.016h9.45M12.463 12.618h9.446c.168 0 .367-.054.496.017.192.105.46.297.464.459.004.167-.24.381-.425.5-.12.078-.326.028-.494.028H2.996c-.126 0-.284.048-.372-.01-.218-.146-.405-.34-.604-.513.206-.16.41-.454.62-.459 1.616-.038 3.232-.021 4.848-.022h4.975M14.643 9.592h9.389c.189 0 .41-.051.558.03.175.097.372.3.397.479.019.135-.19.357-.35.446-.148.083-.366.05-.554.05-6.343.002-12.686.002-19.029.002-.147 0-.334.053-.432-.017-.195-.14-.34-.348-.505-.527.169-.154.319-.344.514-.447.132-.07.33-.016.498-.016h9.514M20.821.25h9.565c.188 0 .405-.031.554.051.135.075.268.286.267.436-.001.141-.149.346-.284.407-.18.081-.41.064-.617.064-6.335.003-12.67.002-19.004.002-.105 0-.233.038-.31-.008-.226-.136-.58-.28-.612-.467-.065-.388.264-.49.625-.49 3.272.007 6.544.004 9.816.004M40.826 27.774h2.326v-8.061h-2.326zM16.66 7.365H7.21c-.21 0-.45.048-.62-.039-.168-.086-.347-.307-.363-.483-.011-.126.216-.319.378-.401.135-.07.33-.025.497-.025H26.13c.189 0 .414-.05.557.033.164.095.337.309.352.484.01.126-.208.332-.367.396-.183.073-.413.034-.623.034l-9.387.001"/>
    </g>
</svg>
