<svg xmlns="http://www.w3.org/2000/svg" width="216" height="216" viewBox="0 0 216 216">
    <g fill="none" fill-rule="evenodd">
        <g transform="translate(76)">
            <rect width="64" height="64" fill="#2E3343" rx="13"/>
            <path fill="#FFF" d="M39.516 26.816H34.64V42h-4.304V26.816H25.5v-3.3h14.016z"/>
        </g>
        <g transform="translate(152 76)">
            <rect width="64" height="64" fill="#2E3343" rx="13"/>
            <g fill="#FFF" fill-rule="nonzero">
                <path d="M33.9 20.4l-7.9 5h-4c-1.1 0-2 .9-2 2v8c0 1.1.9 2 2 2h4l7.9 5c.9.6 2.2.3 2.8-.6.2-.3.3-.7.3-1V22c0-1.1-.9-2-2-2-.4.1-.8.2-1.1.4zM40.055 36.955c-.6 0-1-.4-1-1 0-.3.1-.6.3-.7 2-1.9 2.2-5 .4-7.1l-.4-.4c-.4-.4-.5-1-.1-1.4.4-.4 1-.5 1.4-.1 2.9 2.6 3.1 7 .5 9.9-.2.2-.3.4-.5.5-.1.2-.4.3-.6.3z"/>
                <path d="M40 40.863c-.6 0-1-.5-1-1 0-.4.3-.8.7-.9 4.2-1.5 6.3-6.1 4.8-10.2-.8-2.3-2.6-4-4.8-4.8-.5-.2-.8-.8-.6-1.3.2-.5.8-.8 1.3-.6 5.2 1.8 7.9 7.6 6.1 12.8-1 2.8-3.2 5.1-6.1 6.1-.2-.1-.3-.1-.4-.1z"/>
            </g>
        </g>
        <g transform="translate(0 76)">
            <rect width="64" height="64" fill="#2E3343" rx="13"/>
            <path fill="#FFF" fill-rule="nonzero" d="M27.505 19l-2.02 4h-5.657C18.261 23 17 24.249 17 25.8v14.4c0 1.551 1.261 2.8 2.828 2.8h23.435c1.566 0 2.828-1.249 2.828-2.8V25.8c0-1.551-1.262-2.8-2.828-2.8h-5.657l-2.02-4h-8.08zm4.04 7.2c3.78 0 6.87 3.059 6.87 6.8 0 3.741-3.09 6.8-6.87 6.8-3.779 0-6.868-3.059-6.868-6.8 0-3.741 3.09-6.8 6.868-6.8zm0 2.4c-2.468 0-4.444 1.956-4.444 4.4 0 2.444 1.976 4.4 4.444 4.4 2.47 0 4.445-1.956 4.445-4.4 0-2.444-1.976-4.4-4.445-4.4z"/>
        </g>
        <g transform="translate(76 152)">
            <rect width="64" height="64" fill="#2E3343" rx="13"/>
            <path fill="#FFF" d="M42.508 33.889l-15.392 10.24c-1.335.89-3.116-.064-3.116-1.654v-20.48c0-1.59 1.78-2.544 3.116-1.653l15.455 10.24c1.145.763 1.145 2.543-.063 3.307z"/>
        </g>
        <path fill="#F93E56" d="M127.128 105.688l-8.795 7.618 2.716 11.565c.388 1.633-.905 3.129-2.199 3.129-.388 0-.907-.135-1.293-.408l-9.701-6.259-9.573 6.259a2.106 2.106 0 0 1-1.294.408c-1.424 0-2.717-1.36-2.198-3.13l2.715-11.564-8.665-7.618c-1.684-1.496-.648-4.217 1.422-4.355l11.252-.814 4.27-11.021c.389-1.09 1.294-1.498 2.2-1.498.904 0 1.81.544 2.198 1.498l4.27 11.02 11.253.815c2.2.138 3.105 2.994 1.422 4.355"/>
    </g>
</svg>
