<svg xmlns="http://www.w3.org/2000/svg" width="96" height="96" viewBox="0 0 96 96">
    <defs>
        <linearGradient id="a" x1="99.349%" x2=".173%" y1="50.038%" y2="50.038%">
            <stop offset=".09%" stop-color="#F93E56"/>
            <stop offset="99.975%" stop-color="#FE6561"/>
        </linearGradient>
    </defs>
    <g fill="none" fill-rule="evenodd">
        <path fill="#F93F56" fill-rule="nonzero" d="M48 94c25.405 0 46-20.595 46-46S73.405 2 48 2 2 22.595 2 48s20.595 46 46 46zm0 2C21.49 96 0 74.51 0 48S21.49 0 48 0s48 21.49 48 48-21.49 48-48 48z"/>
        <path fill="url(#a)" d="M68.084 45.688l-9.234 7.618 2.851 11.565c.408 1.633-.95 3.129-2.308 3.129a2.62 2.62 0 0 1-1.358-.406l-10.187-6.259-10.051 6.259a2.3 2.3 0 0 1-1.358.406c-1.496 0-2.854-1.358-2.309-3.13l2.852-11.564-9.1-7.618c-1.767-1.498-.68-4.217 1.494-4.355l11.815-.814 4.484-11.021c.408-1.09 1.358-1.498 2.308-1.498.95 0 1.901.544 2.309 1.498l4.484 11.02 11.815.815c2.31.138 3.261 2.994 1.493 4.355"/>
    </g>
</svg>
