<svg xmlns="http://www.w3.org/2000/svg" width="40" height="72" viewBox="0 0 40 72">
    <g fill="#767B89" fill-rule="evenodd">
        <path d="M7.055 52.614h3.625V35.113H7.055zM21.707 52.59h3.664V35.132h-3.664zM29.25 52.613h3.626v-17.5H29.25zM11.016 24.677h17.786v-3.535H11.016zM10.989 31.594h17.806V28.07H10.989zM0 52.57h3.6V35.11H0zM14.701 52.566h3.566v-17.47h-3.566zM36.334 52.597h3.571v-17.47h-3.57zM18.285 17.461h3.63V0h-3.63zM18.177 68.546v-3.84h-1.688l-.553 3.84h2.24zm-3.29 3.445h-1.76v-3.31c.848.009 1.101-.647 1.193-1.33.19-1.413.3-2.836.448-4.321h5.273v5.428l1.026.202v3.336h-1.741l-.098-1.736h-4.251c-.03.556-.057 1.087-.09 1.73zM6.933 65.736c.522 0 .991.068 1.424-.026.517.017.692-.327.692-.672 0-.344-.35-.344-.732-.5-.425-.104-.896-.026-1.384-.026v1.224zm0 2.917c.58 0 1.133.068 1.655-.03.252-.047.635-.312.616-.614-.025-.387-.387-.632-.66-.69-.513-.11-1.068-.032-1.61-.032v1.366zm-1.9-5.677c1.32 0 2.566-.026 3.81.009.887.025 1.685.333 2.047 1.203.352.846.178 1.633-.527 2.203.297.487.68.905.822 1.391.338 1.16-.512 2.303-1.84 2.392-1.411.095-2.833.022-4.312.022v-7.22zM25.125 65.614h2.737v-2.58h1.9v7.147h-1.85v-2.768h-2.773v2.767h-1.872v-7.15h1.858zM34.365 64.607v5.568H32.51V63.04h5.37v1.568z"/>
    </g>
</svg>
