<svg xmlns="http://www.w3.org/2000/svg" xmlns:xlink="http://www.w3.org/1999/xlink" width="350" height="249" viewBox="0 0 350 249">
    <defs>
        <rect id="a" width="350" height="249" rx="9"/>
        <linearGradient id="c" x1="99.619%" x2=".099%" y1="50.038%" y2="50.038%">
            <stop offset=".09%" stop-color="#F93E56"/>
            <stop offset="99.975%" stop-color="#FE6561"/>
        </linearGradient>
    </defs>
    <g fill="none" fill-rule="evenodd">
        <g>
            <mask id="b" fill="#fff">
                <use xlink:href="#a"/>
            </mask>
            <use fill="#2E3343" xlink:href="#a"/>
            <g mask="url(#b)">
                <path fill="#585E6F" d="M0 154.77c34.91 0 34.91 65.861 69.819 65.861 34.909 0 34.909-63.375 69.818-63.375 34.91 0 34.91 84.5 69.819 84.5 34.91 0 34.91-116.81 69.819-116.81 34.909 0 34.909 108.112 69.818 108.112v-52.784c-34.91 0-34.91-101.306-69.818-101.306-34.91 0-34.91 77.045-69.819 77.045-34.91 0-34.91-50.95-69.819-50.95-34.909 0-34.909 65.862-69.818 65.862C34.909 170.925 34.909 61.57 0 61.57v93.2z"/>
                <path fill="url(#c)" d="M0 187.43h349.093v-16.127c-34.91 0-34.91-107.921-69.818-107.921-34.91 0-34.91 116.604-69.819 116.604-34.91 0-34.91-84.352-69.819-84.352-34.909 0-34.909 63.264-69.818 63.264-34.91 0-34.91-65.745-69.819-65.745v94.276z" transform="translate(0 61.57)"/>
            </g>
            <path fill="#3B4256" d="M9 0h332a9 9 0 0 1 9 9v8.204H0V9a9 9 0 0 1 9-9z" mask="url(#b)"/>
            <ellipse cx="12.241" cy="8.602" fill="#585E6F" mask="url(#b)" rx="4.08" ry="4.075"/>
        </g>
        <path fill="#F93E56" d="M337.608 36.96l-3.958 3.428 1.222 5.204c.175.735-.407 1.408-.99 1.408-.174 0-.408-.06-.581-.184L328.935 44l-4.308 2.816a.948.948 0 0 1-.582.184c-.64 0-1.223-.612-.99-1.408l1.223-5.204-3.9-3.429c-.757-.673-.291-1.897.64-1.959l5.064-.367 1.922-4.959c.174-.49.582-.674.989-.674.407 0 .815.245.99.674l1.921 4.96 5.064.366c.99.062 1.397 1.347.64 1.96"/>
    </g>
</svg>
