<svg xmlns="http://www.w3.org/2000/svg" width="180" height="103" viewBox="0 0 180 103">
    <g fill="none" fill-rule="evenodd">
        <path fill="#383F52" d="M14 0h152c7.732 0 14 6.268 14 14v62.92c0 7.731-6.268 14-14 14H26.31a1 1 0 0 0-.456.11L2.912 102.78A2 2 0 0 1 0 101V14C0 6.268 6.268 0 14 0z"/>
        <rect width="55" height="8" x="55" y="16" fill="#A1A3AD" rx="4"/>
        <rect width="109" height="8" x="55" y="32" fill="#A1A3AD" rx="4"/>
        <rect width="109" height="8" x="55" y="64" fill="#A1A3AD" rx="4"/>
        <rect width="95" height="8" x="55" y="48" fill="#A1A3AD" rx="4"/>
        <g transform="translate(16 16)">
            <circle cx="15.5" cy="15.5" r="15.5" fill="#F93E56"/>
            <path fill="#FFF" d="M21.238 14.806L18.6 17.092l.815 3.47c.116.49-.272.938-.66.938a.719.719 0 0 1-.388-.122l-2.91-1.878-2.872 1.878a.632.632 0 0 1-.388.122c-.427 0-.815-.408-.66-.939l.815-3.47-2.6-2.285c-.505-.448-.194-1.265.427-1.306l3.376-.244 1.28-3.307c.117-.326.389-.449.66-.449.272 0 .543.163.66.45l1.281 3.306 3.376.244c.66.041.931.898.426 1.306"/>
        </g>
    </g>
</svg>
