<svg xmlns="http://www.w3.org/2000/svg" width="132" height="134" viewBox="0 0 132 134">
    <g fill="none" fill-rule="evenodd">
        <path fill="#F93E56" d="M67.972 5.506l-.024-.001c-.003 0-.005 0-.008-.002l-.021-.001-.047-.002-.025-.002h-.012l-.017-.002-.014-.001-.02-.001-.023-.001-.014-.001h-.016l-.014-.002H67.7l-.014-.001-.028-.002-.012-.001-.018-.001h-.013l-.02-.002h-.01l-.03-.002-.03-.002h-.012l-.02-.001h-.01l-.03-.002-.032-.002h-.01l-.022-.002h-.009l.592.034zm13.335 2.247l-1.078 3.852c1.198.335 2.401.713 3.575 1.122l1.319-3.776a63.308 63.308 0 0 0-3.816-1.198zm7.548 2.634l-1.553 3.686a59.612 59.612 0 0 1 3.405 1.564l1.783-3.582a63.44 63.44 0 0 0-2.986-1.39l-.002-.001a.172.172 0 0 0-.02-.008l-.003-.001-.062-.028-.005-.002-.018-.008-.008-.003-.017-.007-.006-.003a.395.395 0 0 0-.03-.013l-.011-.005-.014-.006-.013-.005a.07.07 0 0 0-.012-.006l-.017-.007-.009-.003a.277.277 0 0 0-.025-.012c-.004 0-.004-.002-.008-.003l-.019-.008-.008-.003-.021-.01c-.002 0-.003 0-.005-.002l-.056-.024-.027-.011-.003-.001a16.257 16.257 0 0 0-.23-.098zm7.158 3.562l-2.003 3.462a60.209 60.209 0 0 1 3.184 1.978l2.216-3.33-.042-.029a.008.008 0 0 1-.004-.002l-.016-.01-.007-.005-.014-.01-.01-.006-.016-.01a.352.352 0 0 0-.02-.013l-.006-.005a.1.1 0 0 1-.017-.011l-.007-.005-.02-.013-.004-.002-.05-.034h-.002a63.8 63.8 0 0 0-2.192-1.382v-.002l-.053-.031h-.002l-.023-.015-.005-.003-.021-.012-.004-.003-.026-.015c-.002 0 0 0 0 0a.183.183 0 0 1-.024-.015l-.008-.004-.018-.011-.006-.004-.022-.013h-.003a.314.314 0 0 0-.024-.016l-.007-.004-.019-.01-.006-.006-.019-.01-.007-.004-.023-.015c-.004 0-.006-.003-.009-.005-.006-.002-.01-.006-.015-.009l-.011-.006a.091.091 0 0 1-.014-.008l-.01-.007-.018-.01-.013-.008-.016-.01c-.005-.001-.007-.003-.012-.006l-.011-.006a.153.153 0 0 1-.013-.008.075.075 0 0 1-.011-.008.268.268 0 0 1-.024-.013l-.01-.006a.091.091 0 0 1-.014-.008l-.009-.006-.015-.008c-.003-.003-.006-.004-.01-.006l-.014-.008-.006-.004-.03-.018c-.003 0-.005-.003-.007-.004l-.016-.009a.03.03 0 0 0-.008-.004l-.015-.01-.007-.003c-.018-.01-.036-.022-.054-.031a.016.016 0 0 0-.006-.005l-.016-.01-.007-.003-.054-.032c-.002 0-.004-.002-.005-.003l-.016-.01-.008-.003a.263.263 0 0 0-.017-.01l-.002-.001c-.013-.009-.026-.016-.04-.023-.005-.004-.011-.008-.017-.01l-.007-.005-.016-.01c-.002 0-.003 0-.004-.002l-.043-.024zm6.655 4.428l-2.419 3.186a59.937 59.937 0 0 1 2.915 2.36l2.613-3.029c-.37-.32-.745-.634-1.122-.946l-.071-.058-.003-.002a1.98 1.98 0 0 0-.071-.057l-.001-.002-.022-.019c-.002 0-.001 0-.003-.002a1.456 1.456 0 0 1-.046-.037l-.003-.003a.137.137 0 0 1-.02-.016l-.004-.004-.02-.016-.003-.002-.046-.037-.004-.003-.02-.017-.003-.002-.046-.038-.004-.003-.018-.014-.006-.006-.021-.017h-.001l-.023-.02-.004-.002-.02-.015-.004-.005a.143.143 0 0 0-.02-.015l-.003-.003a.353.353 0 0 0-.023-.018l-.001-.001-.021-.018c-.002 0-.004-.002-.005-.003l-.02-.016-.003-.003-.047-.037-.002-.002c-.007-.006-.015-.011-.02-.017l-.004-.003a1.485 1.485 0 0 0-.047-.037l-.002-.001-.022-.018-.003-.003-.07-.056-.003-.002-.022-.018h-.001c-.017-.014-.033-.026-.048-.04h-.001c-.368-.29-.738-.579-1.112-.863zm6.054 5.223l-2.796 2.86c.89.87 1.765 1.78 2.599 2.705l2.97-2.682a63.259 63.259 0 0 0-2.372-2.487v-.001l-.066-.066h-.001a.36.36 0 0 1-.02-.02l-.003-.003-.042-.042-.004-.002a.332.332 0 0 0-.018-.02c-.002 0-.002-.002-.003-.002l-.02-.02c-.002-.002 0 0 0 0l-.023-.023a.112.112 0 0 1-.02-.02l-.005-.004a.234.234 0 0 1-.016-.016l-.004-.005-.021-.02-.004-.004-.016-.016-.008-.007-.012-.013a.07.07 0 0 0-.009-.007l-.014-.015-.008-.007a.259.259 0 0 1-.026-.026l-.01-.01a.055.055 0 0 0-.01-.01.065.065 0 0 1-.01-.008l-.008-.009zm5.36 5.933l-3.13 2.492c.776.974 1.53 1.985 2.244 3.005l3.278-2.292a63.684 63.684 0 0 0-2.393-3.205zm4.582 6.552l-3.415 2.084a60.355 60.355 0 0 1 1.853 3.26l3.537-1.867a62.396 62.396 0 0 0-.967-1.764c-.01-.02-.023-.04-.033-.059l-.003-.006-.01-.016c0-.003-.002-.005-.003-.007l-.03-.051-.005-.01-.008-.013-.006-.01a.101.101 0 0 0-.008-.014l-.006-.011-.012-.022-.008-.012-.006-.013-.008-.012-.007-.012c-.003-.005-.004-.01-.008-.015l-.005-.008-.013-.024-.005-.008-.01-.017-.005-.008-.01-.019s-.004-.004-.004-.006l-.014-.025-.014-.023a.056.056 0 0 0-.005-.009l-.01-.018-.004-.006a.269.269 0 0 1-.013-.023l-.001-.002-.016-.026-.001-.004-.013-.02-.003-.006-.015-.025-.03-.052-.002-.004-.014-.023v-.002l-.095-.16v-.001l-.048-.081-.112-.188-.063-.108-.048-.08-.048-.079c0-.002 0 0-.002-.002-.004-.01-.01-.018-.014-.026l-.032-.053-.002-.003-.013-.021-.003-.006-.014-.021c0-.001 0-.002-.002-.003-.004-.009-.009-.016-.014-.024l-.005-.008a.153.153 0 0 0-.01-.017l-.005-.008a.153.153 0 0 1-.01-.017.024.024 0 0 0-.006-.008.164.164 0 0 0-.012-.023l-.007-.011-.008-.012-.008-.013c-.001-.004-.004-.007-.006-.01l-.008-.015-.005-.006a1.579 1.579 0 0 0-.04-.068zm3.73 7.07l-3.647 1.642a60.194 60.194 0 0 1 1.43 3.466l3.743-1.41a63.172 63.172 0 0 0-1.526-3.697zm2.817 7.482l-3.824 1.172c.365 1.19.695 2.407.984 3.616l3.89-.928-.02-.09-.002-.006-.006-.021-.001-.01-.005-.02-.002-.007-.006-.027a.21.21 0 0 0-.004-.013.074.074 0 0 1-.003-.014l-.003-.015-.002-.01-.006-.019v-.004a1.7 1.7 0 0 1-.017-.068l-.007-.023v-.001a62.265 62.265 0 0 0-.456-1.759l-.001-.003a.187.187 0 0 0-.006-.022v-.002l-.018-.065-.002-.006-.005-.017-.003-.01-.004-.016-.004-.014-.005-.02-.005-.018-.003-.012-.005-.015a.049.049 0 0 1-.003-.011l-.005-.019-.003-.009-.015-.055-.002-.006-.006-.024-.002-.004a63.94 63.94 0 0 0-.413-1.405zm1.856 7.777l-3.942.682c.213 1.226.388 2.473.524 3.711l3.976-.433a63.559 63.559 0 0 0-.558-3.96zm.867 7.948l-3.996.185c.057 1.241.076 2.503.055 3.75l4 .063.004-.304v-.003-.02l.001-.008v-.02-.008-.02-.008-.028-.017l.001-.013v-.016-.013-.016l.001-.012v-.02-.041-.027-.006-.025-.005l.001-.028V69.7v-.093a65.052 65.052 0 0 0-.067-3.245zm-4.115 7.686a60.639 60.639 0 0 1-.406 3.73l3.961.556c.066-.466.126-.933.182-1.403l.011-.1v-.001l.004-.023v-.004a.17.17 0 0 0 .002-.022l.001-.005.01-.094.001-.007.002-.02v-.008l.004-.018v-.008l.008-.065v-.007l.003-.018v-.011c.002-.006.002-.01.002-.017l.002-.01.002-.019v-.006a.411.411 0 0 0 .004-.034l.002-.013.002-.014v-.013l.002-.016.002-.011c0-.007 0-.011.002-.018v-.01l.007-.059v-.012c.002-.004.002-.012.003-.016l.001-.012.002-.016c0-.005 0-.009.002-.014v-.014c.002-.005.002-.009.002-.014l.004-.028v-.012c.002-.006.002-.01.002-.016l.002-.011c0-.005 0-.014.002-.017v-.012c.002-.006.002-.01.002-.016l.002-.013.002-.027.002-.014V76c.002-.004.002-.007.002-.01l.002-.018.001-.01.002-.019.001-.008.01-.093v-.004c0-.01.001-.013.003-.022v-.006l.012-.124c.044-.442.083-.883.116-1.328l-3.987-.31zm-1.041 7.426c-.25 1.22-.541 2.447-.865 3.648l3.86 1.044a61.3 61.3 0 0 0 .463-1.812.256.256 0 0 0 .006-.028l.001-.005.007-.023.001-.007a.221.221 0 0 1 .006-.025v-.004c.003-.009.006-.018.007-.028l.003-.01.003-.017c.002-.004.003-.007.003-.011l.005-.017a.05.05 0 0 1 .003-.012c0-.006.002-.01.003-.017.002-.003.002-.006.003-.01a.184.184 0 0 1 .006-.025c0-.006.002-.01.003-.016l.003-.012.004-.016.002-.01.004-.017.002-.008c.006-.021.01-.044.015-.064l.001-.005.005-.02.001-.005c.129-.554.25-1.108.364-1.668l-3.92-.8zm-1.957 7.232c-.4 1.178-.843 2.359-1.316 3.509l3.699 1.521c.126-.306.25-.614.372-.924v-.001c.366-.929.71-1.869 1.032-2.82l-3.787-1.285zm-2.85 6.928a60.147 60.147 0 0 1-1.747 3.316l3.48 1.974a63.57 63.57 0 0 0 1.863-3.538l-3.596-1.752z"/>
        <path fill="#383F52" d="M64 117.382c26.51 0 48-21.49 48-48s-21.49-48-48-48-48 21.49-48 48 21.49 48 48 48"/>
        <path fill="#A1A3AD" d="M74.21 8.277l-12.763 6.382A1 1 0 0 1 60 13.762V1.002a1 1 0 0 1 1.447-.895L74.21 6.487a1 1 0 0 1 0 1.79"/>
        <path fill="#A1A3AD" d="M110.063 107.82C99.057 120.995 82.51 129.382 64 129.382c-33.137 0-60-26.863-60-60C4 36.916 29.791 10.49 62 9.433v-4C27.582 6.491 0 34.707 0 69.382c0 35.346 28.654 64 64 64 19.734 0 37.376-8.937 49.116-22.979l-3.053-2.583z"/>
        <path fill="#FFF" d="M62.388 80.963H45.39v-2.936l8.332-9.088c1.36-1.488 2.297-2.71 2.812-3.665.516-.955.774-1.89.774-2.803 0-1.149-.334-2.11-1.002-2.883-.668-.774-1.57-1.16-2.707-1.16-1.5 0-2.613.422-3.34 1.265-.726.844-1.09 2.004-1.09 3.48h-4.13l-.036-.105c-.058-2.273.686-4.186 2.233-5.739C48.783 55.776 50.904 55 53.599 55c2.46 0 4.406.68 5.836 2.04 1.43 1.358 2.144 3.134 2.144 5.325 0 1.465-.413 2.865-1.239 4.201-.826 1.336-2.106 2.96-3.84 4.87l-5.696 6.011.053.106h11.531v3.41zm17.877-9.123h3.234v3.445h-3.234v5.678H76.01v-5.678H65.025l-.106-2.619L75.87 55.369h4.395v16.47zm-11.127 0h6.873V61.45l-.105-.035-.352.756-6.416 9.668z"/>
        <path fill="#F93E56" d="M117.651 109.633l-3.518 2.857 1.087 4.337c.155.612-.362 1.173-.88 1.173-.155 0-.363-.05-.517-.153l-3.88-2.347-3.83 2.347a.881.881 0 0 1-.517.153c-.57 0-1.087-.51-.88-1.173l1.087-4.337-3.467-2.857c-.673-.561-.259-1.581.57-1.633l4.5-.305 1.708-4.133c.156-.409.518-.562.88-.562s.724.204.88.562l1.707 4.133 4.501.305c.88.052 1.243 1.123.57 1.633"/>
    </g>
</svg>
