<svg xmlns="http://www.w3.org/2000/svg" width="72" height="128" viewBox="0 0 72 128">
    <g fill="none" fill-rule="evenodd">
        <g>
            <rect width="72" height="128" fill="#2E3343" rx="7"/>
            <path fill="#FFF" d="M6 8h60v96H6z"/>
            <circle cx="35.876" cy="115.876" r="4.876" fill="#A1A3AD"/>
        </g>
        <path fill="#F93E56" d="M43.651 56.075l-3.518 3.047 1.087 4.626c.155.654-.362 1.252-.88 1.252a.958.958 0 0 1-.517-.163l-3.88-2.504-3.83 2.504a.842.842 0 0 1-.517.163c-.57 0-1.087-.544-.88-1.252l1.087-4.625-3.467-3.048c-.673-.598-.259-1.687.57-1.742l4.5-.325 1.708-4.409c.156-.436.518-.599.88-.599s.724.218.88.6l1.707 4.407 4.501.326c.88.055 1.243 1.198.57 1.742"/>
        <path fill="#A1A3AD" d="M57 40v12h-4V40H41v-4h16v4zM57 74V62h-4v12H41v4h16v-4zM15 40v12h4V40h12v-4H15v4zM15 74V62h4v12h12v4H15v-4z"/>
    </g>
</svg>
