<svg height="41" viewBox="0 0 14.469 41" width="14.469" xmlns="http://www.w3.org/2000/svg"><path d="m35.3 117.783a7.11 7.11 0 0 1 -5-1.821 7.985 7.985 0 0 1 -2.157-5.814v-16.513a7.987 7.987 0 0 1 2.157-5.814 7.118 7.118 0 0 1 5-1.821 6.929 6.929 0 0 1 5 1.822 7.8 7.8 0 0 1 2.157 5.814v2.282h-4.744v-2.283a3.071 3.071 0 0 0 -.6-2.218 2.566 2.566 0 0 0 -1.812-.534 2.492 2.492 0 0 0 -1.769.534 3.022 3.022 0 0 0 -.647 2.218v16.513a3.02 3.02 0 0 0 .647 2.218 2.5 2.5 0 0 0 1.769.533 2.568 2.568 0 0 0 1.812-.533 3.067 3.067 0 0 0 .6-2.218v-5.815h-2.477v-4.883h7.222v10.7a7.8 7.8 0 0 1 -2.157 5.814 6.922 6.922 0 0 1 -5 1.821m7.06 9.215h-14.361v-4.848h14.361z" fill-rule="evenodd" transform="translate(-28 -86)"/></svg>