<svg xmlns="http://www.w3.org/2000/svg" width="1848" height="682"><defs><style>.cls-1{fill:#fff;fill-rule:evenodd}</style></defs><path class="cls-1" d="M121.6 528.69q-50.322 0-83.384-30.29-35.954-36.9-35.942-96.71V127.012q0-59.784 35.942-96.714Q71.267.036 121.6 0q51.754 0 83.385 30.3 35.934 35.431 35.94 96.714v37.955h-79.07v-37.957q0-27.309-10.064-36.907-9.351-8.883-30.191-8.872-20.133 0-29.473 8.872-10.782 10.335-10.782 36.907V401.69q0 26.58 10.782 36.91 9.336 8.865 29.473 8.86 20.841 0 30.191-8.86 10.057-9.57 10.064-36.91v-96.72h-41.268v-81.23h120.334v177.95q0 61.3-35.94 96.71-31.642 30.3-83.385 30.29m278.392 0q-51.754 0-83.384-30.29-35.954-35.4-35.941-96.71V5.922h79.07V401.69q0 27.33 10.063 36.91 9.338 8.865 30.192 8.86 20.115 0 29.473-8.86 10.781-10.32 10.782-36.91V5.922h79.07V401.69q0 59.8-35.941 96.71-33.07 30.3-83.384 30.29m236.883-87.13h40.253q21.564 0 30.189-8.11 10.06-8.88 10.066-34.71V132.922q0-25.838-10.785-36.918-9.35-8.865-29.47-8.848h-40.253v354.4zm40.253 81.22H557.8V5.922h119.324q51.031 0 83.383 31.008 35.937 33.962 35.942 95.992V398.74q0 30.285-8.626 53.9-10.074 25.11-28.034 41.34-30.917 28.815-82.665 28.8M1033.37 87.156H915.341V217.1h78.769v81.21h-78.769v224.47h-79.072V5.922h197.1v81.234zm140.6-5.923q-20.145 0-29.48 8.872-10.785 10.335-10.78 36.907V401.69q0 26.58 10.78 36.91 9.345 8.865 29.48 8.86 20.835 0 29.47-8.86 10.77-9.57 10.78-36.91V127.012q0-27.309-10.78-36.907-8.64-8.883-29.47-8.872m0 447.457q-51.765 0-83.39-30.29-35.955-35.4-35.94-96.71V127.012q0-61.287 35.94-96.714 31.62-30.262 83.39-30.3 51.75 0 83.38 30.3 35.94 35.431 35.94 96.714V401.69q0 61.3-35.94 96.71-31.635 30.3-83.38 30.29m277.64-447.457q-20.145 0-29.47 8.872-10.785 10.335-10.79 36.907V401.69q0 26.58 10.79 36.91 9.33 8.865 29.47 8.86 20.835 0 29.47-8.86 10.785-9.57 10.78-36.91V127.012q0-27.309-10.78-36.907-8.625-8.883-29.47-8.872m0 447.457q-51.765 0-83.39-30.29-35.955-35.4-35.94-96.71V127.012q0-61.287 35.94-96.714 31.62-30.262 83.39-30.3 51.75 0 83.38 30.3 35.94 35.431 35.94 96.714V401.69q0 61.3-35.94 96.71-31.635 30.3-83.38 30.29m236.81-87.13h40.25q21.57 0 30.2-8.11 10.05-8.88 10.06-34.71V132.922q0-25.838-10.79-36.918-9.345-8.865-29.47-8.848h-40.25v354.4zm40.25 81.22h-119.32V5.922h119.32q51.045 0 83.39 31.008 35.925 33.962 35.94 95.992V398.74q0 30.285-8.63 53.9-10.065 25.11-28.03 41.34-30.915 28.815-82.67 28.8M1848 682H0v-80.63h1848V682z"/></svg>