<svg xmlns="http://www.w3.org/2000/svg" xmlns:xlink="http://www.w3.org/1999/xlink" width="76" height="40" viewBox="0 0 76 40">
    <defs>
        <path id="a" d="M0 .071h14.957v19.606H0z"/>
        <path id="c" d="M.053.078h19.21V14.57H.054z"/>
    </defs>
    <g fill="none" fill-rule="evenodd">
        <path fill="#767B89" d="M15.359 0l-3.084 3.947c-.885 1.134-1.77 2.269-2.656 3.402-.388.496-.778.99-1.147 1.46.528.349 1.066.658 1.551 1.034 1.436 1.113 2.498 2.53 3.294 4.155.462.942.814 1.921 1.034 2.947.137.64.424 1.2.878 1.673.023.023.04.051.075.098H.153c.118-.216.277-.41.335-.632.103-.396.205-.808.206-1.214C.707 11.885.7 6.9.704 1.916.704 1.208.554.554.084 0H15.36zM29.715 31.06h3.17v-4.628H30.97c.081-.144.167-.244.198-.36.082-.31.191-.624.2-.939.07-2.328 1.202-4.031 3.134-5.213 1.823-1.115 3.791-1.29 5.786-.532 2.111.8 3.435 2.345 3.975 4.545.283 1.152.23 2.298-.098 3.434-.037.127-.029.217.057.325.855 1.07 1.338 2.294 1.485 3.654.177 1.645-.097 3.207-.893 4.662-.978 1.786-2.455 2.989-4.396 3.575-2.683.811-5.154.336-7.361-1.395-1.225-.96-2.087-2.19-2.543-3.688-.049-.158-.14-.145-.251-.145h-6.864c.046-.253.09-.495.14-.757H21.3c.023.144.028.276.068.396.038.113.113.213.185.346h-7.036c.817-.971 1.072-2.18 1.495-3.307 1.182-3.15 2.33-6.314 3.49-9.474.084-.23.15-.467.218-.702.118-.403.069-.755-.372-1.007.096-.011.147-.022.197-.022 1.723 0 3.446.003 5.169-.006.169 0 .212.078.259.206 1.562 4.296 3.126 8.591 4.69 12.887.158.438.354.853.707 1.228 0-.078.004-.122-.002-.163-.006-.049-.028-.095-.033-.144-.045-.468-.094-.935-.129-1.404a2.525 2.525 0 0 0-.492-1.372"/>
        <g transform="translate(0 19.124)">
            <mask id="b" fill="#fff">
                <use xlink:href="#a"/>
            </mask>
            <path fill="#767B89" d="M.588 19.668v-.28c0-5.512-.003-11.024.003-16.537C.59 2.07.565 1.304 0 .641.101.633.16.627.22.627h1.392C5.366.618 9.12.61 12.872.597c.547-.002 1.052-.15 1.503-.526v6.383c-.01.001-.029.01-.036.003-.515-.397-1.11-.513-1.744-.508-.519.004-1.037 0-1.61 0 .08.053.116.08.154.1 2.126 1.15 3.425 2.904 3.74 5.31.272 2.06-.151 3.972-1.515 5.605-.82.983-1.87 1.647-3.06 2.094a9.607 9.607 0 0 1-4.475.56c-.876-.098-1.746-.27-2.613-.438-.93-.179-1.814-.158-2.628.488" mask="url(#b)"/>
        </g>
        <g transform="translate(56.709 4.018)">
            <mask id="d" fill="#fff">
                <use xlink:href="#c"/>
            </mask>
            <path fill="#767B89" d="M19.264 14.571H.075l.276-.338c.34-.413.403-.93.536-1.422.523-1.929 1.498-3.59 3.01-4.908.398-.347.873-.607 1.314-.904.056-.039.122-.065.192-.1C3.623 4.627 1.852 2.37.053.077h19.195l-5.34 6.806c.044.03.08.059.12.08 1.2.625 2.13 1.542 2.894 2.646.813 1.174 1.36 2.461 1.689 3.847.086.362.277.672.519.952.038.044.075.09.134.162" mask="url(#d)"/>
        </g>
        <path fill="#767B89" d="M36.8 15.065v.48c0 .611-.003 1.223.002 1.835.003.481.136.925.447 1.334h-7.637c.118-.35.25-.706.355-1.07.042-.145.034-.306.034-.46.003-2.102.003-4.204.006-6.307 0-.828.011-1.657.01-2.486a257.541 257.541 0 0 0-.02-3.054 2.23 2.23 0 0 0-.086-.515c-.048-.184-.105-.376-.368-.347l-.02-.315c.296 0 .575.006.853-.001.8-.021 1.6-.034 2.398-.075.88-.044 1.759-.129 2.64-.171.637-.03 1.28.008 1.915-.04.378-.027.749.034 1.1.096.578.1 1.15.299 1.692.532 1.401.604 2.416 1.606 2.92 3.067.437 1.264.459 2.54.036 3.818a.73.73 0 0 0-.027.307c.035.294-.075.522-.329.669a.617.617 0 0 0-.198.173c-1.322 1.934-3.181 2.71-5.476 2.55-.075-.005-.15-.012-.247-.02M69.199 30.646c0 .916-.029 1.816.015 2.711.016.317.208.624.319.935h-7.624c.01-.026.016-.053.03-.073.288-.388.397-.831.397-1.306v-11.79c0-.48-.114-.928-.447-1.33.303-.012.573-.025.843-.037 1.235-.053 2.47-.112 3.705-.157 1.165-.043 2.333-.141 3.495-.092 1.653.07 3.157.611 4.332 1.837 1.17 1.221 1.607 2.713 1.44 4.375-.237 2.377-1.936 4.277-4.257 4.808a6.984 6.984 0 0 1-2.248.12"/>
        <path fill="#767B89" d="M45.508 4.21h.25c1.674 0 3.347.004 5.02-.005.184 0 .251.066.309.224 1.48 4.083 2.962 8.166 4.456 12.244.194.53.45 1.039.7 1.546.088.176.244.318.384.496h-7.144l.14-.747h-2.277l.263.741h-6.978c.12-.167.26-.31.34-.482.26-.558.522-1.117.741-1.692a270.707 270.707 0 0 0 1.65-4.473c.089-.244.074-.525.144-.779.053-.19.159-.369.252-.547.085-.165.209-.315.274-.487.343-.91.678-1.822 1.005-2.738.231-.647.497-1.28.722-1.93.073-.21.113-.434.14-.656.028-.24-.066-.391-.391-.714M61.758 34.346h-7.162l.14-.744h-2.274l.267.738h-6.985c.128-.184.282-.345.367-.537.306-.691.614-1.384.875-2.092 1.245-3.375 2.475-6.755 3.709-10.134.067-.184.125-.372.181-.56.131-.44.192-.866-.356-1.176.135-.007.194-.013.254-.013 1.701 0 3.403.002 5.105-.005.173-.001.237.057.294.214 1.571 4.308 3.15 8.613 4.724 12.92.186.508.455.962.86 1.39M29.339 4.217c-.76.813-1.043 1.838-1.467 2.784-1.508 3.368-2.99 6.75-4.48 10.126-.057.128-.105.26-.153.392-.141.393-.077.745.215 1.051.037.039.07.082.123.145H15.41c.084-.113.156-.212.23-.31.482-.632.764-1.37 1.098-2.08.484-1.028.956-2.062 1.439-3.09a.388.388 0 0 0 .002-.355c-.944-2.156-1.883-4.314-2.824-6.472-.176-.404-.335-.818-.536-1.21-.174-.338-.395-.651-.599-.981H29.34z"/>
    </g>
</svg>
