<svg xmlns="http://www.w3.org/2000/svg" xmlns:xlink="http://www.w3.org/1999/xlink" width="147" height="24" viewBox="0 0 147 24">
    <defs>
        <path id="a" d="M0 23.49h146.618V.246H0z"/>
    </defs>
    <g fill="none" fill-rule="evenodd">
        <path fill="#A1A3AD" d="M10.99 6.857v16.457h8.93v-2.547h-5.994v-4.52h5.163V13.7h-5.163V9.404h5.163l.807-2.547zM35.197 6.857l-4.137 5.919-3.865-5.919h-3.369l5.376 8.191-5.847 8.266h3.27l4.262-6.068 4.013 6.068h3.32l-5.476-8.34 5.723-8.117zM46.685 15.219c.803 0 1.455-.127 1.932-.382.928-.458 1.38-1.374 1.38-2.621 0-1.094-.427-2.036-1.305-2.57-.477-.28-1.154-.433-2.057-.433h-.853v6.006h.903zm-3.913-8.5h3.988c1.53 0 2.735.23 3.713.713 1.706.865 2.684 2.494 2.684 4.784 0 1.934-.827 3.945-3.16 4.911-.904.357-2.032.586-3.512.586h-.703v5.776h-3.01V6.72z"/>
        <mask id="b" fill="#fff">
            <use xlink:href="#a"/>
        </mask>
        <path fill="#A1A3AD" d="M57.951 23.49h3.01V6.72h-3.01zM70.847 14.455c.778 0 1.33-.152 1.832-.433.702-.407 1.154-1.17 1.154-2.213 0-.89-.376-1.68-1.104-2.112-.402-.28-.953-.484-1.857-.484h-1.38v5.242h1.355zM66.482 6.72h4.516c1.555 0 2.659.255 3.537.687 1.756.84 2.46 2.392 2.46 4.097 0 2.24-1.33 3.716-3.237 4.327v.05c.501.28 1.179 1.197 2.057 2.723l2.76 4.886h-3.463l-2.383-4.25c-.803-1.5-1.405-2.188-1.807-2.29h-1.43v6.54h-3.01V6.72zM82.765 6.72h9.132l-.828 2.595h-5.294v4.377h5.294v2.596h-5.294v4.606h6.147v2.595h-9.157zM108.908 23.49l-7.175-9.569c-.727-.942-1.305-1.782-1.856-2.545h-.05c.05.662.05 1.629.05 2.596v9.517h-3.01V6.72h2.984l6.925 9.187c.727.993 1.33 1.807 1.83 2.595h.051c-.025-.89-.05-1.908-.05-2.824V6.719h3.036v16.77h-2.735zM124.013 9.315h-7.05l-.778-2.596h12.62l-8.054 14.175h8.13v2.595h-13.072zM140.823 16.797l-1.154-3.334a33.71 33.71 0 0 1-.828-2.596h-.05c-.15.585-.402 1.323-.853 2.621l-1.204 3.309h4.089zM137.56 6.643h2.409l6.649 16.846h-3.262l-1.606-4.198h-5.895l-1.556 4.198h-3.136l6.397-16.846z" mask="url(#b)"/>
        <path fill="#F93E56" d="M9.945 4.582L7.71 6.449l.69 2.835c.098.4-.23.767-.56.767a.625.625 0 0 1-.328-.1L5.046 8.417 2.613 9.95a.549.549 0 0 1-.328.1.58.58 0 0 1-.56-.767l.691-2.835L.214 4.582c-.428-.367-.165-1.034.361-1.067l2.86-.2L4.52.614c.099-.267.33-.367.56-.367.23 0 .46.133.558.367l1.085 2.701 2.86.2c.56.033.79.734.362 1.067" mask="url(#b)"/>
    </g>
</svg>
