<svg xmlns="http://www.w3.org/2000/svg" width="110.906" height="41"><defs><style>.cls-1{fill:#fff;fill-rule:evenodd}</style></defs><path class="cls-1" d="M7.306 31.783a7.112 7.112 0 0 1-5-1.821 7.986 7.986 0 0 1-2.157-5.814V7.635a7.988 7.988 0 0 1 2.157-5.814 7.12 7.12 0 0 1 5-1.822 6.929 6.929 0 0 1 5 1.822 7.8 7.8 0 0 1 2.157 5.814v2.282H9.718V7.635a3.072 3.072 0 0 0-.6-2.218 2.566 2.566 0 0 0-1.812-.534 2.5 2.5 0 0 0-1.769.534 3.023 3.023 0 0 0-.647 2.218v16.513a3.021 3.021 0 0 0 .647 2.218 2.5 2.5 0 0 0 1.769.533 2.568 2.568 0 0 0 1.812-.533 3.069 3.069 0 0 0 .6-2.218v-5.815H7.242V13.45h7.221v10.7a7.8 7.8 0 0 1-2.157 5.814 6.922 6.922 0 0 1-5 1.821m16.707 0a6.92 6.92 0 0 1-5-1.821 7.8 7.8 0 0 1-2.157-5.814V.355h4.745v23.793a3.064 3.064 0 0 0 .6 2.218 2.565 2.565 0 0 0 1.812.533 2.5 2.5 0 0 0 1.768-.533 3.017 3.017 0 0 0 .647-2.218V.355h4.745v23.793a7.99 7.99 0 0 1-2.156 5.814 7.114 7.114 0 0 1-5 1.821m14.215-5.238h2.416a2.63 2.63 0 0 0 1.812-.488 2.754 2.754 0 0 0 .6-2.086V7.99a3.115 3.115 0 0 0-.648-2.218 2.5 2.5 0 0 0-1.768-.532h-2.416v21.306zm2.416 4.883h-7.161V.355h7.161a6.927 6.927 0 0 1 5 1.864 7.568 7.568 0 0 1 2.157 5.77V23.97a9.423 9.423 0 0 1-.518 3.239 6.58 6.58 0 0 1-1.681 2.491 6.978 6.978 0 0 1-4.961 1.732M62.023 5.243h-7.087v7.812h4.727v4.882h-4.727v13.495h-4.745V.355h11.828v4.884zm8.438-.356a2.491 2.491 0 0 0-1.769.534 3.023 3.023 0 0 0-.647 2.218v16.513a3.021 3.021 0 0 0 .647 2.218 2.494 2.494 0 0 0 1.769.533 2.4 2.4 0 0 0 1.768-.533 2.924 2.924 0 0 0 .647-2.218V7.635a2.927 2.927 0 0 0-.647-2.218 2.4 2.4 0 0 0-1.768-.534m0 26.9a6.92 6.92 0 0 1-5-1.821 7.8 7.8 0 0 1-2.157-5.814V7.635a7.8 7.8 0 0 1 2.157-5.814 7.782 7.782 0 0 1 10.007 0 7.8 7.8 0 0 1 2.157 5.814v16.513a7.8 7.8 0 0 1-2.157 5.814 6.919 6.919 0 0 1-5 1.821m16.661-26.9a2.49 2.49 0 0 0-1.768.534 3.018 3.018 0 0 0-.648 2.218v16.513a3.017 3.017 0 0 0 .648 2.218 2.493 2.493 0 0 0 1.768.533 2.4 2.4 0 0 0 1.769-.533 2.928 2.928 0 0 0 .647-2.218V7.635a2.931 2.931 0 0 0-.647-2.218 2.4 2.4 0 0 0-1.769-.534m0 26.9a6.922 6.922 0 0 1-5-1.821 7.8 7.8 0 0 1-2.157-5.814V7.635a7.8 7.8 0 0 1 2.157-5.814 7.784 7.784 0 0 1 10.008 0 7.8 7.8 0 0 1 2.157 5.814v16.513a7.8 7.8 0 0 1-2.157 5.814 6.922 6.922 0 0 1-5 1.821m14.212-5.238h2.415a2.628 2.628 0 0 0 1.812-.488 2.754 2.754 0 0 0 .6-2.086V7.99a3.12 3.12 0 0 0-.647-2.218 2.5 2.5 0 0 0-1.769-.532h-2.415v21.306zm2.415 4.883h-7.161V.355h7.161a6.925 6.925 0 0 1 5 1.864 7.564 7.564 0 0 1 2.142 5.771v15.981a9.423 9.423 0 0 1-.518 3.239 6.58 6.58 0 0 1-1.682 2.49 6.976 6.976 0 0 1-4.961 1.732M110.906 41H.006v-4.848h110.9V41z"/></svg>