<svg xmlns="http://www.w3.org/2000/svg" width="294" height="251" viewBox="0 0 294 251">
    <defs>
        <linearGradient id="a" x1="99.619%" x2=".099%" y1="50.038%" y2="50.038%">
            <stop offset=".09%" stop-color="#F93E56"/>
            <stop offset="99.975%" stop-color="#FE6561"/>
        </linearGradient>
    </defs>
    <g fill="none" fill-rule="evenodd">
        <path fill="#2E3343" fill-rule="nonzero" d="M277.375 33.815a9.112 9.112 0 0 1-1.9-2.057c.119-.99.402-1.952.838-2.845.85-2.12 1.812-4.533.737-6.806-1.075-2.273-3.55-3.048-5.763-3.695a9.078 9.078 0 0 1-2.65-1.054 9.521 9.521 0 0 1-.437-2.883c-.137-2.298-.3-4.914-2.262-6.502-1.963-1.587-4.475-1.168-6.713-.8a9.011 9.011 0 0 1-2.875.216 9.074 9.074 0 0 1-1.6-2.374c-1.125-2.02-2.387-4.318-4.862-4.89-2.475-.57-4.488.915-6.325 2.223A8.716 8.716 0 0 1 241 3.834a8.715 8.715 0 0 1-2.575-1.486c-1.837-1.27-3.912-2.794-6.325-2.222-2.412.571-3.75 2.87-4.862 4.889a9.407 9.407 0 0 1-1.575 2.374 9.06 9.06 0 0 1-2.888-.216c-2.237-.368-4.762-.787-6.712.8-1.95 1.588-2.125 4.204-2.263 6.502a9.521 9.521 0 0 1-.437 2.883 9.078 9.078 0 0 1-2.65 1.054c-2.188.647-4.663 1.384-5.763 3.695-1.1 2.31-.112 4.686.738 6.806.432.89.715 1.847.837 2.832a8.835 8.835 0 0 1-1.9 2.07c-1.612 1.485-3.625 3.39-3.625 5.93 0 2.54 2.013 4.444 3.625 5.93a8.835 8.835 0 0 1 1.9 2.07 8.994 8.994 0 0 1-.837 2.832c-.85 2.12-1.813 4.533-.738 6.806 1.075 2.273 3.575 3.048 5.763 3.695a9.078 9.078 0 0 1 2.65 1.054c.292.932.44 1.905.437 2.883.138 2.298.3 4.914 2.263 6.501 1.962 1.588 4.475 1.169 6.712.8a9.011 9.011 0 0 1 2.875-.216 9.074 9.074 0 0 1 1.6 2.375c1.125 2.032 2.388 4.318 4.863 4.889 2.475.571 4.487-.914 6.325-2.222A8.716 8.716 0 0 1 241 75.656a8.715 8.715 0 0 1 2.575 1.486c1.563 1.104 3.3 2.349 5.275 2.349.354 0 .706-.042 1.05-.127 2.5-.571 3.75-2.857 4.863-4.889a9.407 9.407 0 0 1 1.575-2.375 9.06 9.06 0 0 1 2.887.216c2.238.369 4.763.788 6.713-.8 1.95-1.587 2.125-4.203 2.262-6.501a9.521 9.521 0 0 1 .438-2.883 9.078 9.078 0 0 1 2.65-1.054c2.187-.647 4.662-1.384 5.762-3.695 1.1-2.311.113-4.686-.737-6.806a8.994 8.994 0 0 1-.838-2.832 9.051 9.051 0 0 1 1.888-2.07c1.625-1.486 3.637-3.327 3.637-5.93 0-2.603-2.013-4.445-3.625-5.93z"/>
        <g fill="#585E6F">
            <path d="M232.137 23.008c2.486 0 4.5 2.047 4.5 4.572s-2.014 4.571-4.5 4.571c-2.485 0-4.5-2.046-4.5-4.571 0-1.213.475-2.375 1.319-3.233a4.465 4.465 0 0 1 3.182-1.339zM232.137 55.504a2.474 2.474 0 0 1-3.5.444 2.567 2.567 0 0 1-.475-3.505l21.725-28.457a2.474 2.474 0 0 1 3.5-.444 2.57 2.57 0 0 1 .45 3.568l-21.7 28.394zM249.887 56.481c-2.485 0-4.5-2.046-4.5-4.571s2.015-4.571 4.5-4.571c2.486 0 4.5 2.046 4.5 4.571a4.608 4.608 0 0 1-1.326 3.241c-.85.859-2 1.337-3.199 1.33h.026z"/>
        </g>
        <g fill="url(#a)" fill-rule="nonzero" transform="translate(72 80)">
            <path d="M85.77 99H131a2 2 0 0 1 2 2v65a5 5 0 0 1-5 5H14a5 5 0 0 1-5-5v-65a2 2 0 0 1 2-2h74.77zm1.008-47H137a5 5 0 0 1 5 5v29a2 2 0 0 1-2 2H2a2 2 0 0 1-2-2V57a5 5 0 0 1 5-5h81.778zM33.995 40.618C38.455 43.652 45.831 45 56.81 45h29.334c10.807 0 18.355-1.517 22.815-4.382 10.979-7.416 14.41-21.573 7.376-31.517C112.39 3.371 105.528 0 98.152 0a25.843 25.843 0 0 0-14.41 4.382c-5.146 3.37-9.263 11.124-12.18 18.54-2.915-7.248-7.032-15-12.179-18.54A25.843 25.843 0 0 0 44.973 0C37.598 0 30.737 3.37 26.79 9.101c-7.204 9.944-3.774 24.101 7.205 31.517zM89.06 12.303c2.745-1.854 5.833-2.865 8.92-2.865 4.289 0 8.063 1.854 10.293 5.056 3.945 5.73 1.715 13.82-4.803 18.371-1.201.843-5.49 2.697-17.326 2.697-3.26 0-6.347-.169-8.749-.337C80.14 25.955 84.772 15 89.06 12.303zm-54.55 2.191c2.23-3.202 6.004-5.056 10.292-5.056 3.088 0 6.176 1.011 8.92 2.865 4.117 2.866 8.92 13.82 11.837 22.922-2.402.168-5.49.337-8.749.337-11.836 0-15.953-1.854-17.326-2.697-6.69-4.55-8.92-12.809-4.974-18.37z"/>
        </g>
        <path fill="#383F52" d="M158.324 213.22l-6.816 5.693 2.105 8.644c.3 1.22-.702 2.338-1.704 2.338-.3 0-.703-.1-1.002-.305l-7.519-4.677-7.419 4.677c-.3.204-.602.305-1.002.305-1.104 0-2.106-1.016-1.704-2.338l2.104-8.644-6.715-5.694c-1.305-1.118-.502-3.151 1.102-3.254l8.72-.609 3.31-8.236c.3-.815 1.002-1.12 1.704-1.12a1.85 1.85 0 0 1 1.704 1.12l3.31 8.236 8.72.61c1.705.102 2.407 2.237 1.102 3.253"/>
        <g transform="translate(0 97)">
            <circle cx="28" cy="28" r="28" fill="#2E3343"/>
            <path fill="#585E6F" d="M28 44c8.837 0 16-7.163 16-16s-7.163-16-16-16-16 7.163-16 16 7.163 16 16 16z"/>
            <path fill="#2E3343" d="M33.6 26.4a2 2 0 1 0 0-4 2 2 0 0 0 0 4zM22.4 26.4a2 2 0 1 0 0-4 2 2 0 0 0 0 4zM27.899 35.109a8.694 8.694 0 0 0 6.866-3.349 1.112 1.112 0 0 1 1.752 1.371 10.918 10.918 0 0 1-8.618 4.202 10.91 10.91 0 0 1-8.132-3.623 1.112 1.112 0 1 1 1.653-1.488A8.686 8.686 0 0 0 27.9 35.11z"/>
        </g>
        <g transform="translate(238 195)">
            <rect width="56" height="56" fill="#2E3343" rx="13"/>
            <g fill="#585E6F" fill-rule="nonzero">
                <path d="M27.9 17.4l-7.9 5h-4c-1.1 0-2 .9-2 2v8c0 1.1.9 2 2 2h4l7.9 5c.9.6 2.2.3 2.8-.6.2-.3.3-.7.3-1V19c0-1.1-.9-2-2-2-.4.1-.8.2-1.1.4zM34.055 33.955c-.6 0-1-.4-1-1 0-.3.1-.6.3-.7 2-1.9 2.2-5 .4-7.1l-.4-.4c-.4-.4-.5-1-.1-1.4.4-.4 1-.5 1.4-.1 2.9 2.6 3.1 7 .5 9.9-.2.2-.3.4-.5.5-.1.2-.4.3-.6.3z"/>
                <path d="M34 37.863c-.6 0-1-.5-1-1 0-.4.3-.8.7-.9 4.2-1.5 6.3-6.1 4.8-10.2-.8-2.3-2.6-4-4.8-4.8-.5-.2-.8-.8-.6-1.3.2-.5.8-.8 1.3-.6 5.2 1.8 7.9 7.6 6.1 12.8-1 2.8-3.2 5.1-6.1 6.1-.2-.1-.3-.1-.4-.1z"/>
            </g>
        </g>
    </g>
</svg>
