<svg xmlns="http://www.w3.org/2000/svg" xmlns:xlink="http://www.w3.org/1999/xlink" width="176" height="176" viewBox="0 0 176 176">
    <defs>
        <path id="a" d="M.12 0h5.135V6.07H.12z"/>
        <path id="c" d="M.12 0h5.135V6.07H.12z"/>
        <path id="e" d="M.12 0h5.135V6.07H.12z"/>
        <path id="g" d="M.12 0h5.135V6.07H.12z"/>
        <path id="i" d="M.12 0h5.135V6.07H.12z"/>
        <path id="k" d="M.12 0h5.135V6.07H.12z"/>
        <path id="m" d="M.12 0h5.135V6.07H.12z"/>
        <path id="o" d="M0 176h176V0H0z"/>
        <linearGradient id="q" x1="99.619%" x2=".099%" y1="50.038%" y2="50.038%">
            <stop offset=".09%" stop-color="#F93E56"/>
            <stop offset="99.975%" stop-color="#FE6561"/>
        </linearGradient>
    </defs>
    <g fill="none" fill-rule="evenodd">
        <g>
            <path fill="#2E3343" d="M49.019 2.567V6.07h5.134V2.567a2.567 2.567 0 0 0-5.134 0M57.655.467a2.567 2.567 0 1 1 0 5.135 2.567 2.567 0 0 1 0-5.135M61.157 2.567V6.07h5.134V2.567a2.567 2.567 0 0 0-5.134 0M73.295 2.567V6.07h5.134V2.567a2.567 2.567 0 0 0-5.134 0M81.931.467a2.567 2.567 0 1 1 0 5.135 2.567 2.567 0 0 1 0-5.135M88 .467a2.567 2.567 0 1 1 0 5.135 2.567 2.567 0 0 1 0-5.135M106.207.467a2.567 2.567 0 1 1 0 5.135 2.567 2.567 0 0 1 0-5.135M109.709 2.567V6.07h5.134V2.567a2.567 2.567 0 0 0-5.134 0M118.345.467a2.567 2.567 0 1 1 0 5.135 2.567 2.567 0 0 1 0-5.135M124.414.467a2.567 2.567 0 1 1 0 5.135 2.567 2.567 0 0 1 0-5.135M54.153 9.57V6.07H49.02V9.57a2.567 2.567 0 0 0 5.134 0"/>
            <path fill="#2E3343" d="M61.157 9.103v3.035h5.134V6.069h-5.134zM78.43 9.57V6.07h-5.135V9.57a2.567 2.567 0 0 0 5.134 0M100.138 6.536a2.567 2.567 0 1 1 0 5.135 2.567 2.567 0 0 1 0-5.135M109.709 9.103v3.035h5.134V6.069h-5.134zM66.291 15.64v-3.502h-5.134v3.502a2.567 2.567 0 0 0 5.134 0M81.931 12.605a2.567 2.567 0 1 1 0 5.135 2.567 2.567 0 0 1 0-5.135M85.433 14.705v3.502h5.134v-3.502a2.567 2.567 0 0 0-5.134 0M114.843 15.64v-3.502h-5.134v3.502a2.567 2.567 0 0 0 5.134 0M51.586 18.674a2.567 2.567 0 1 1 0 5.135 2.567 2.567 0 0 1 0-5.135M57.655 18.674a2.567 2.567 0 1 1 0 5.135 2.567 2.567 0 0 1 0-5.135M67.226 20.774v3.502h5.134v-3.502a2.567 2.567 0 0 0-5.134 0M73.295 20.774v3.502h5.134v-3.502a2.567 2.567 0 0 0-5.134 0M90.567 21.709V18.207h-5.134V21.709a2.567 2.567 0 0 0 5.134 0M91.502 20.774v3.502h5.134v-3.502a2.567 2.567 0 0 0-5.134 0M106.207 18.674a2.567 2.567 0 1 1 0 5.135 2.567 2.567 0 0 1 0-5.135M72.36 27.778V24.276h-5.134V27.778a2.567 2.567 0 0 0 5.134 0M73.295 27.31v3.035h5.134v-6.069h-5.134zM96.636 27.778V24.276h-5.134V27.778a2.567 2.567 0 0 0 5.134 0M97.57 26.843v3.502h5.135v-3.502a2.567 2.567 0 0 0-5.134 0M115.778 26.843v3.502h5.134v-3.502a2.567 2.567 0 0 0-5.134 0M57.655 30.812a2.567 2.567 0 1 1 0 5.134 2.567 2.567 0 0 1 0-5.134M73.295 33.38v3.034h5.134v-6.069h-5.134zM97.57 33.38v3.034h5.135v-6.069h-5.134zM109.709 32.912v3.502h5.134v-3.502a2.567 2.567 0 0 0-5.134 0M120.912 33.847V30.345h-5.134V33.847a2.567 2.567 0 0 0 5.134 0M49.019 38.981v3.502h5.134V38.98a2.567 2.567 0 0 0-5.134 0M61.157 38.981v3.502h5.134V38.98a2.567 2.567 0 0 0-5.134 0M78.43 39.916V36.414h-5.135V39.916a2.567 2.567 0 0 0 5.134 0M88 36.881a2.567 2.567 0 1 1 0 5.134 2.567 2.567 0 0 1 0-5.134M97.57 39.448v3.035h5.135v-6.069h-5.134zM109.709 39.448v3.035h5.134v-6.069h-5.134zM124.414 36.881a2.567 2.567 0 1 1 0 5.134 2.567 2.567 0 0 1 0-5.134"/>
            <path fill="#2E3343" d="M54.153 45.985V42.483H49.02V45.985a2.567 2.567 0 0 0 5.134 0M57.655 42.95a2.567 2.567 0 1 1 0 5.134 2.567 2.567 0 0 1 0-5.134M66.291 45.985V42.483h-5.134V45.985a2.567 2.567 0 0 0 5.134 0M97.57 45.517v3.035h5.135v-6.069h-5.134zM103.64 45.05v3.502h5.134V45.05a2.567 2.567 0 0 0-5.134 0M114.843 45.985V42.483h-5.134V45.985a2.567 2.567 0 0 0 5.134 0M118.345 42.95a2.567 2.567 0 1 1 0 5.134 2.567 2.567 0 0 1 0-5.134M.467 51.119v3.502h5.135v-3.502a2.567 2.567 0 0 0-5.135 0M12.605 51.119v3.502h5.135v-3.502a2.567 2.567 0 0 0-5.135 0M18.674 51.119v3.502h5.135v-3.502a2.567 2.567 0 0 0-5.135 0M30.812 51.119v3.502h5.134v-3.502a2.567 2.567 0 0 0-5.134 0M39.448 49.019a2.567 2.567 0 1 1 0 5.134 2.567 2.567 0 0 1 0-5.134M45.517 49.019a2.567 2.567 0 1 1 0 5.134 2.567 2.567 0 0 1 0-5.134M73.295 51.119v3.502h5.134v-3.502a2.567 2.567 0 0 0-5.134 0M81.931 49.019a2.567 2.567 0 1 1 0 5.134 2.567 2.567 0 0 1 0-5.134M85.433 51.119v3.502h5.134v-3.502a2.567 2.567 0 0 0-5.134 0"/>
            <path fill="#2E3343" d="M97.57 51.586v3.035h5.135v-6.069h-5.134zM103.64 51.586v3.035h5.134v-6.069h-5.134zM133.985 51.119v3.502h5.134v-3.502a2.567 2.567 0 0 0-5.134 0M154.759 49.019a2.567 2.567 0 1 1 0 5.134 2.567 2.567 0 0 1 0-5.134M166.897 49.019a2.567 2.567 0 1 1 0 5.134 2.567 2.567 0 0 1 0-5.134M170.398 51.119v3.502h5.135v-3.502a2.567 2.567 0 0 0-5.135 0M.467 57.655v3.035h5.135V54.62H.467zM6.536 57.188v3.502h5.135v-3.502a2.567 2.567 0 0 0-5.135 0M17.74 58.122v-3.501h-5.135v3.501a2.567 2.567 0 0 0 5.135 0M23.809 58.122v-3.501h-5.135v3.501a2.567 2.567 0 0 0 5.135 0M27.31 55.088a2.567 2.567 0 1 1 0 5.134 2.567 2.567 0 0 1 0-5.134M30.812 57.655v3.035h5.134V54.62h-5.134zM51.586 55.088a2.567 2.567 0 1 1 0 5.134 2.567 2.567 0 0 1 0-5.134M55.088 57.188v3.502h5.134v-3.502a2.567 2.567 0 0 0-5.134 0M61.157 57.188v3.502h5.134v-3.502a2.567 2.567 0 0 0-5.134 0M78.43 58.122v-3.501h-5.135v3.501a2.567 2.567 0 0 0 5.134 0M85.433 57.655v3.035h5.134V54.62h-5.134z"/>
            <path fill="#2E3343" d="M97.57 57.655v3.035h5.135V54.62h-5.134zM108.774 58.122v-3.501h-5.134v3.501a2.567 2.567 0 0 0 5.134 0M109.709 57.188v3.502h5.134v-3.502a2.567 2.567 0 0 0-5.134 0M118.345 55.088a2.567 2.567 0 1 1 0 5.134 2.567 2.567 0 0 1 0-5.134M133.985 57.655v3.035h5.134V54.62h-5.134zM142.62 55.088a2.567 2.567 0 1 1 0 5.134 2.567 2.567 0 0 1 0-5.134M148.69 55.088a2.567 2.567 0 1 1 0 5.134 2.567 2.567 0 0 1 0-5.134M175.533 58.122v-3.501h-5.135v3.501a2.567 2.567 0 0 0 5.135 0M5.602 64.191V60.69H.467v3.501a2.567 2.567 0 0 0 5.135 0M11.67 64.191V60.69H6.537v3.501a2.567 2.567 0 0 0 5.135 0M35.947 64.191V60.69h-5.135v3.501a2.567 2.567 0 0 0 5.135 0M39.448 61.157a2.567 2.567 0 1 1 0 5.134 2.567 2.567 0 0 1 0-5.134M55.088 63.724v3.035h5.134V60.69h-5.134zM66.291 64.191V60.69h-5.134v3.501a2.567 2.567 0 0 0 5.134 0M67.226 63.257v3.502h5.134v-3.502a2.567 2.567 0 0 0-5.134 0M79.364 63.257v3.502h5.134v-3.502a2.567 2.567 0 0 0-5.134 0M90.567 64.191V60.69h-5.134v3.501a2.567 2.567 0 0 0 5.134 0M102.705 64.191V60.69h-5.134v3.501a2.567 2.567 0 0 0 5.134 0"/>
            <path fill="#2E3343" d="M109.709 63.724v3.035h5.134V60.69h-5.134zM133.985 63.724v3.035h5.134V60.69h-5.134zM160.828 61.157a2.567 2.567 0 1 1 0 5.134 2.567 2.567 0 0 1 0-5.134M166.897 61.157a2.567 2.567 0 1 1 0 5.134 2.567 2.567 0 0 1 0-5.134M60.222 70.26V66.76h-5.134v3.501a2.567 2.567 0 0 0 5.134 0M67.226 69.793v3.035h5.134v-6.069h-5.134zM84.498 70.26V66.76h-5.134v3.501a2.567 2.567 0 0 0 5.134 0M94.069 67.226a2.567 2.567 0 1 1 0 5.134 2.567 2.567 0 0 1 0-5.134M114.843 70.26V66.76h-5.134v3.501a2.567 2.567 0 0 0 5.134 0M118.345 67.226a2.567 2.567 0 1 1 0 5.134 2.567 2.567 0 0 1 0-5.134M139.119 70.26V66.76h-5.134v3.501a2.567 2.567 0 0 0 5.134 0M142.62 67.226a2.567 2.567 0 1 1 0 5.134 2.567 2.567 0 0 1 0-5.134M172.966 67.226a2.567 2.567 0 1 1 0 5.134 2.567 2.567 0 0 1 0-5.134M9.103 73.295a2.567 2.567 0 1 1 0 5.134 2.567 2.567 0 0 1 0-5.134M18.674 75.395v3.502h5.135v-3.502a2.567 2.567 0 0 0-5.135 0M27.31 73.295a2.567 2.567 0 1 1 0 5.134 2.567 2.567 0 0 1 0-5.134M39.448 73.295a2.567 2.567 0 1 1 0 5.134 2.567 2.567 0 0 1 0-5.134M42.95 75.395v3.502h5.134v-3.502a2.567 2.567 0 0 0-5.134 0M49.019 75.395v3.502h5.134v-3.502a2.567 2.567 0 0 0-5.134 0"/>
            <path fill="#2E3343" d="M67.226 75.862v3.035h5.134v-6.069h-5.134zM88 73.295a2.567 2.567 0 1 1 0 5.134 2.567 2.567 0 0 1 0-5.134M103.64 75.395v3.502h5.134v-3.502a2.567 2.567 0 0 0-5.134 0M154.759 73.295a2.567 2.567 0 1 1 0 5.134 2.567 2.567 0 0 1 0-5.134M158.26 75.395v3.502h5.135v-3.502a2.567 2.567 0 0 0-5.135 0M3.034 79.364a2.567 2.567 0 1 1 0 5.134 2.567 2.567 0 0 1 0-5.134M12.605 81.464v3.502h5.135v-3.502a2.567 2.567 0 0 0-5.135 0M23.809 82.398v-3.501h-5.135v3.501a2.567 2.567 0 0 0 5.135 0M48.084 82.398v-3.501H42.95v3.501a2.567 2.567 0 0 0 5.134 0M49.019 81.931v3.035h5.134v-6.069H49.02zM63.724 79.364a2.567 2.567 0 1 1 0 5.134 2.567 2.567 0 0 1 0-5.134M67.226 81.931v3.035h5.134v-6.069h-5.134zM73.295 81.464v3.502h5.134v-3.502a2.567 2.567 0 0 0-5.134 0M79.364 81.464v3.502h5.134v-3.502a2.567 2.567 0 0 0-5.134 0M94.069 79.364a2.567 2.567 0 1 1 0 5.134 2.567 2.567 0 0 1 0-5.134M100.138 79.364a2.567 2.567 0 1 1 0 5.134 2.567 2.567 0 0 1 0-5.134M103.64 81.931v3.035h5.134v-6.069h-5.134zM112.276 79.364a2.567 2.567 0 1 1 0 5.134 2.567 2.567 0 0 1 0-5.134M115.778 81.464v3.502h5.134v-3.502a2.567 2.567 0 0 0-5.134 0M130.483 79.364a2.567 2.567 0 1 1 0 5.134 2.567 2.567 0 0 1 0-5.134M133.985 81.464v3.502h5.134v-3.502a2.567 2.567 0 0 0-5.134 0M158.26 81.931v3.035h5.135v-6.069h-5.135zM164.33 81.464v3.502h5.134v-3.502a2.567 2.567 0 0 0-5.135 0M170.398 81.464v3.502h5.135v-3.502a2.567 2.567 0 0 0-5.135 0M9.103 85.433a2.567 2.567 0 1 1 0 5.134 2.567 2.567 0 0 1 0-5.134M12.605 88v3.034h5.135v-6.068h-5.135zM33.38 85.433a2.567 2.567 0 1 1 0 5.134 2.567 2.567 0 0 1 0-5.134M39.448 85.433a2.567 2.567 0 1 1 0 5.134 2.567 2.567 0 0 1 0-5.134M49.019 88v3.034h5.134v-6.068H49.02zM55.088 87.533v3.502h5.134v-3.502a2.567 2.567 0 0 0-5.134 0M72.36 88.467v-3.501h-5.134v3.501a2.567 2.567 0 0 0 5.134 0M78.43 88.467v-3.501h-5.135v3.501a2.567 2.567 0 0 0 5.134 0M84.498 88.467v-3.501h-5.134v3.501a2.567 2.567 0 0 0 5.134 0M108.774 88.467v-3.501h-5.134v3.501a2.567 2.567 0 0 0 5.134 0M115.778 88v3.034h5.134v-6.068h-5.134zM139.119 88.467v-3.501h-5.134v3.501a2.567 2.567 0 0 0 5.134 0M148.69 85.433a2.567 2.567 0 1 1 0 5.134 2.567 2.567 0 0 1 0-5.134M163.395 88.467v-3.501h-5.134v3.501a2.567 2.567 0 0 0 5.134 0M164.33 88v3.034h5.134v-6.068h-5.135zM175.533 88.467v-3.501h-5.135v3.501a2.567 2.567 0 0 0 5.135 0M3.034 91.502a2.567 2.567 0 1 1 0 5.134 2.567 2.567 0 0 1 0-5.134M12.605 94.069v3.034h5.135v-6.069h-5.135zM24.743 93.602v3.501h5.134v-3.501a2.567 2.567 0 0 0-5.134 0M45.517 91.502a2.567 2.567 0 1 1 0 5.134 2.567 2.567 0 0 1 0-5.134M54.153 94.536v-3.501H49.02v3.501a2.567 2.567 0 0 0 5.134 0M60.222 94.536v-3.501h-5.134v3.501a2.567 2.567 0 0 0 5.134 0M63.724 91.502a2.567 2.567 0 1 1 0 5.134 2.567 2.567 0 0 1 0-5.134M88 91.502a2.567 2.567 0 1 1 0 5.134 2.567 2.567 0 0 1 0-5.134M109.709 93.602v3.501h5.134v-3.501a2.567 2.567 0 0 0-5.134 0M115.778 94.069v3.034h5.134v-6.069h-5.134zM127.916 93.602v3.501h5.134v-3.501a2.567 2.567 0 0 0-5.134 0M140.054 93.602v3.501h5.134v-3.501a2.567 2.567 0 0 0-5.134 0M164.33 94.069v3.034h5.134v-6.069h-5.135zM9.103 97.57a2.567 2.567 0 1 1 0 5.135 2.567 2.567 0 0 1 0-5.134M17.74 100.605v-3.501h-5.135v3.501a2.567 2.567 0 0 0 5.135 0M21.241 97.57a2.567 2.567 0 1 1 0 5.135 2.567 2.567 0 0 1 0-5.134M29.878 100.605v-3.501h-5.135v3.501a2.567 2.567 0 0 0 5.135 0M30.812 99.67V103.173h5.134v-3.501a2.567 2.567 0 0 0-5.134 0M39.448 97.57a2.567 2.567 0 1 1 0 5.135 2.567 2.567 0 0 1 0-5.134M69.793 97.57a2.567 2.567 0 1 1 0 5.135 2.567 2.567 0 0 1 0-5.134M73.295 99.67V103.173h5.134v-3.501a2.567 2.567 0 0 0-5.134 0M114.843 100.605v-3.501h-5.134v3.501a2.567 2.567 0 0 0 5.134 0M120.912 100.605v-3.501h-5.134v3.501a2.567 2.567 0 0 0 5.134 0M133.05 100.605v-3.501h-5.134v3.501a2.567 2.567 0 0 0 5.134 0M145.188 100.605v-3.501h-5.134v3.501a2.567 2.567 0 0 0 5.134 0M148.69 97.57a2.567 2.567 0 1 1 0 5.135 2.567 2.567 0 0 1 0-5.134M152.191 99.67V103.173h5.135v-3.501a2.567 2.567 0 0 0-5.135 0M164.33 100.138v3.034h5.134v-6.069h-5.135z"/>
            <path fill="#2E3343" d="M30.812 106.207v3.034h5.134v-6.069h-5.134zM51.586 103.64a2.567 2.567 0 1 1 0 5.134 2.567 2.567 0 0 1 0-5.134M78.43 106.674v-3.502h-5.135v3.502a2.567 2.567 0 0 0 5.134 0M79.364 105.74v3.501h5.134v-3.501a2.567 2.567 0 0 0-5.134 0M91.502 105.74v3.501h5.134v-3.501a2.567 2.567 0 0 0-5.134 0M124.414 103.64a2.567 2.567 0 1 1 0 5.134 2.567 2.567 0 0 1 0-5.134M157.326 106.674v-3.502h-5.134v3.502a2.567 2.567 0 0 0 5.134 0M158.26 105.74v3.501h5.135v-3.501a2.567 2.567 0 0 0-5.135 0M169.464 106.674v-3.502h-5.134v3.502a2.567 2.567 0 0 0 5.134 0M3.034 109.709a2.567 2.567 0 1 1 0 5.134 2.567 2.567 0 0 1 0-5.134M27.31 109.709a2.567 2.567 0 1 1 0 5.134 2.567 2.567 0 0 1 0-5.134M30.812 112.276v3.034h5.134v-6.069h-5.134zM39.448 109.709a2.567 2.567 0 1 1 0 5.134 2.567 2.567 0 0 1 0-5.134M42.95 111.808V115.31h5.134V111.808a2.567 2.567 0 0 0-5.134 0M57.655 109.709a2.567 2.567 0 1 1 0 5.134 2.567 2.567 0 0 1 0-5.134M63.724 109.709a2.567 2.567 0 1 1 0 5.134 2.567 2.567 0 0 1 0-5.134M84.498 112.743v-3.502h-5.134v3.502a2.567 2.567 0 0 0 5.134 0M85.433 111.808V115.31h5.134V111.808a2.567 2.567 0 0 0-5.134 0M91.502 112.276v3.034h5.134v-6.069h-5.134zM97.57 111.808V115.31h5.135V111.808a2.567 2.567 0 0 0-5.134 0M127.916 111.808V115.31h5.134V111.808a2.567 2.567 0 0 0-5.134 0M136.552 109.709a2.567 2.567 0 1 1 0 5.134 2.567 2.567 0 0 1 0-5.134M142.62 109.709a2.567 2.567 0 1 1 0 5.134 2.567 2.567 0 0 1 0-5.134M158.26 112.276v3.034h5.135v-6.069h-5.135zM12.605 117.877V121.38h5.135V117.877a2.567 2.567 0 0 0-5.135 0M18.674 117.877V121.38h5.135V117.877a2.567 2.567 0 0 0-5.135 0M35.947 118.812v-3.502h-5.135v3.502a2.567 2.567 0 0 0 5.135 0M42.95 118.345v3.034h5.134v-6.069H42.95zM49.019 117.877V121.38h5.134V117.877a2.567 2.567 0 0 0-5.134 0M85.433 118.345v3.034h5.134v-6.069h-5.134zM91.502 118.345v3.034h5.134v-6.069h-5.134zM102.705 118.812v-3.502h-5.134v3.502a2.567 2.567 0 0 0 5.134 0M103.64 117.877V121.38h5.134V117.877a2.567 2.567 0 0 0-5.134 0M109.709 117.877V121.38h5.134V117.877a2.567 2.567 0 0 0-5.134 0M118.345 115.778a2.567 2.567 0 1 1 0 5.134 2.567 2.567 0 0 1 0-5.134M127.916 118.345v3.034h5.134v-6.069h-5.134zM146.123 117.877V121.38h5.134V117.877a2.567 2.567 0 0 0-5.134 0M158.26 118.345v3.034h5.135v-6.069h-5.135zM9.103 121.847a2.567 2.567 0 1 1 0 5.134 2.567 2.567 0 0 1 0-5.134"/>
            <path fill="#2E3343" d="M17.74 124.881v-3.502h-5.135v3.502a2.567 2.567 0 0 0 5.135 0M23.809 124.881v-3.502h-5.135v3.502a2.567 2.567 0 0 0 5.135 0M27.31 121.847a2.567 2.567 0 1 1 0 5.134 2.567 2.567 0 0 1 0-5.134M39.448 121.847a2.567 2.567 0 1 1 0 5.134 2.567 2.567 0 0 1 0-5.134M48.084 124.881v-3.502H42.95v3.502a2.567 2.567 0 0 0 5.134 0M49.019 124.414v3.034h5.134v-6.069H49.02zM63.724 121.847a2.567 2.567 0 1 1 0 5.134 2.567 2.567 0 0 1 0-5.134M73.295 123.946V127.448h5.134V123.946a2.567 2.567 0 0 0-5.134 0M81.931 121.847a2.567 2.567 0 1 1 0 5.134 2.567 2.567 0 0 1 0-5.134M85.433 124.414v3.034h5.134v-6.069h-5.134zM96.636 124.881v-3.502h-5.134v3.502a2.567 2.567 0 0 0 5.134 0M108.774 124.881v-3.502h-5.134v3.502a2.567 2.567 0 0 0 5.134 0M114.843 124.881v-3.502h-5.134v3.502a2.567 2.567 0 0 0 5.134 0M121.847 123.946V127.448h5.134V123.946a2.567 2.567 0 0 0-5.134 0M133.05 124.881v-3.502h-5.134v3.502a2.567 2.567 0 0 0 5.134 0M136.552 121.847a2.567 2.567 0 1 1 0 5.134 2.567 2.567 0 0 1 0-5.134M142.62 121.847a2.567 2.567 0 1 1 0 5.134 2.567 2.567 0 0 1 0-5.134M146.123 124.414v3.034h5.134v-6.069h-5.134zM152.191 123.946V127.448h5.135V123.946a2.567 2.567 0 0 0-5.135 0M158.26 124.414v3.034h5.135v-6.069h-5.135z"/>
            <path fill="#2E3343" d="M49.019 130.483v3.034h5.134v-6.069H49.02zM69.793 127.916a2.567 2.567 0 1 1 0 5.134 2.567 2.567 0 0 1 0-5.134M78.43 130.95v-3.502h-5.135v3.502a2.567 2.567 0 0 0 5.134 0M90.567 130.95v-3.502h-5.134v3.502a2.567 2.567 0 0 0 5.134 0M121.847 130.483v3.034h5.134v-6.069h-5.134zM146.123 130.483v3.034h5.134v-6.069h-5.134zM152.191 130.483v3.034h5.135v-6.069h-5.135zM163.395 130.95v-3.502h-5.134v3.502a2.567 2.567 0 0 0 5.134 0M164.33 130.015V133.517h5.134V130.015a2.567 2.567 0 0 0-5.135 0M172.966 127.916a2.567 2.567 0 1 1 0 5.134 2.567 2.567 0 0 1 0-5.134M49.019 136.552v3.034h5.134v-6.069H49.02zM55.088 136.084V139.586h5.134V136.084a2.567 2.567 0 0 0-5.134 0M100.138 133.985a2.567 2.567 0 1 1 0 5.134 2.567 2.567 0 0 1 0-5.134M112.276 133.985a2.567 2.567 0 1 1 0 5.134 2.567 2.567 0 0 1 0-5.134M118.345 133.985a2.567 2.567 0 1 1 0 5.134 2.567 2.567 0 0 1 0-5.134M121.847 136.552v3.034h5.134v-6.069h-5.134zM136.552 133.985a2.567 2.567 0 1 1 0 5.134 2.567 2.567 0 0 1 0-5.134M146.123 136.552v3.034h5.134v-6.069h-5.134zM152.191 136.552v3.034h5.135v-6.069h-5.135zM169.464 137.02v-3.503h-5.134v3.502a2.567 2.567 0 0 0 5.134 0M54.153 143.088v-3.502H49.02v3.502a2.567 2.567 0 0 0 5.134 0M55.088 142.62v3.035h5.134v-6.069h-5.134zM61.157 142.153V145.655h5.134V142.153a2.567 2.567 0 0 0-5.134 0M69.793 140.054a2.567 2.567 0 1 1 0 5.134 2.567 2.567 0 0 1 0-5.134M81.931 140.054a2.567 2.567 0 1 1 0 5.134 2.567 2.567 0 0 1 0-5.134M88 140.054a2.567 2.567 0 1 1 0 5.134 2.567 2.567 0 0 1 0-5.134M91.502 142.153V145.655h5.134V142.153a2.567 2.567 0 0 0-5.134 0M121.847 142.62v3.035h5.134v-6.069h-5.134zM146.123 142.62v3.035h5.134v-6.069h-5.134zM157.326 143.088v-3.502h-5.134v3.502a2.567 2.567 0 0 0 5.134 0M60.222 149.157v-3.502h-5.134v3.502a2.567 2.567 0 0 0 5.134 0M66.291 149.157v-3.502h-5.134v3.502a2.567 2.567 0 0 0 5.134 0M91.502 148.69v3.034h5.134v-6.069h-5.134zM97.57 148.222V151.724h5.135V148.222a2.567 2.567 0 0 0-5.134 0M106.207 146.123a2.567 2.567 0 1 1 0 5.134 2.567 2.567 0 0 1 0-5.134M121.847 148.69v3.034h5.134v-6.069h-5.134zM127.916 148.222V151.724h5.134V148.222a2.567 2.567 0 0 0-5.134 0M136.552 146.123a2.567 2.567 0 1 1 0 5.134 2.567 2.567 0 0 1 0-5.134M140.054 148.222V151.724h5.134V148.222a2.567 2.567 0 0 0-5.134 0M146.123 148.69v3.034h5.134v-6.069h-5.134zM160.828 146.123a2.567 2.567 0 1 1 0 5.134 2.567 2.567 0 0 1 0-5.134M166.897 146.123a2.567 2.567 0 1 1 0 5.134 2.567 2.567 0 0 1 0-5.134M170.398 148.222V151.724h5.135V148.222a2.567 2.567 0 0 0-5.135 0M49.019 154.291V157.793h5.134V154.291a2.567 2.567 0 0 0-5.134 0M69.793 152.191a2.567 2.567 0 1 1 0 5.135 2.567 2.567 0 0 1 0-5.135M75.862 152.191a2.567 2.567 0 1 1 0 5.135 2.567 2.567 0 0 1 0-5.135M88 152.191a2.567 2.567 0 1 1 0 5.135 2.567 2.567 0 0 1 0-5.135M96.636 155.226v-3.502h-5.134v3.502a2.567 2.567 0 0 0 5.134 0M102.705 155.226v-3.502h-5.134v3.502a2.567 2.567 0 0 0 5.134 0M118.345 152.191a2.567 2.567 0 1 1 0 5.135 2.567 2.567 0 0 1 0-5.135M126.98 155.226v-3.502h-5.133v3.502a2.567 2.567 0 0 0 5.134 0M127.916 154.759v3.034h5.134v-6.069h-5.134zM140.054 154.759v3.034h5.134v-6.069h-5.134zM151.257 155.226v-3.502h-5.134v3.502a2.567 2.567 0 0 0 5.134 0M154.759 152.191a2.567 2.567 0 1 1 0 5.135 2.567 2.567 0 0 1 0-5.135M170.398 154.759v3.034h5.135v-6.069h-5.135z"/>
            <path fill="#2E3343" d="M54.153 161.295v-3.502H49.02v3.502a2.567 2.567 0 0 0 5.134 0M61.157 160.36V163.862h5.134V160.36a2.567 2.567 0 0 0-5.134 0M81.931 158.26a2.567 2.567 0 1 1 0 5.135 2.567 2.567 0 0 1 0-5.135M127.916 160.828v3.034h5.134v-6.069h-5.134zM140.054 160.828v3.034h5.134v-6.069h-5.134zM160.828 158.26a2.567 2.567 0 1 1 0 5.135 2.567 2.567 0 0 1 0-5.135M175.533 161.295v-3.502h-5.135v3.502a2.567 2.567 0 0 0 5.135 0M55.088 166.43v3.501h5.134V166.429a2.567 2.567 0 0 0-5.134 0M61.157 166.897v3.034h5.134v-6.069h-5.134zM67.226 166.43v3.501h5.134V166.429a2.567 2.567 0 0 0-5.134 0M73.295 166.43v3.501h5.134V166.429a2.567 2.567 0 0 0-5.134 0M85.433 166.43v3.501h5.134V166.429a2.567 2.567 0 0 0-5.134 0M94.069 164.33a2.567 2.567 0 1 1 0 5.134 2.567 2.567 0 0 1 0-5.135M100.138 164.33a2.567 2.567 0 1 1 0 5.134 2.567 2.567 0 0 1 0-5.135M121.847 166.43v3.501h5.134V166.429a2.567 2.567 0 0 0-5.134 0M133.05 167.364v-3.502h-5.134v3.502a2.567 2.567 0 0 0 5.134 0M145.188 167.364v-3.502h-5.134v3.502a2.567 2.567 0 0 0 5.134 0M154.759 164.33a2.567 2.567 0 1 1 0 5.134 2.567 2.567 0 0 1 0-5.135M164.33 166.43v3.501h5.134V166.429a2.567 2.567 0 0 0-5.135 0M51.586 170.398a2.567 2.567 0 1 1 0 5.135 2.567 2.567 0 0 1 0-5.135"/>
            <g transform="translate(54.967 169.931)">
                <mask id="b" fill="#fff">
                    <use xlink:href="#a"/>
                </mask>
                <path fill="#2E3343" d="M5.255 3.502V0H.12V3.502a2.567 2.567 0 0 0 5.134 0" mask="url(#b)"/>
            </g>
            <g transform="translate(61.036 169.931)">
                <mask id="d" fill="#fff">
                    <use xlink:href="#c"/>
                </mask>
                <path fill="#2E3343" d="M5.255 3.502V0H.12V3.502a2.567 2.567 0 0 0 5.134 0" mask="url(#d)"/>
            </g>
            <g transform="translate(67.105 169.931)">
                <mask id="f" fill="#fff">
                    <use xlink:href="#e"/>
                </mask>
                <path fill="#2E3343" d="M5.255 3.502V0H.12V3.502a2.567 2.567 0 0 0 5.134 0" mask="url(#f)"/>
            </g>
            <g transform="translate(73.174 169.931)">
                <mask id="h" fill="#fff">
                    <use xlink:href="#g"/>
                </mask>
                <path fill="#2E3343" d="M5.255 3.502V0H.12V3.502a2.567 2.567 0 0 0 5.134 0" mask="url(#h)"/>
            </g>
            <path fill="#2E3343" d="M81.931 170.398a2.567 2.567 0 1 1 0 5.135 2.567 2.567 0 0 1 0-5.135"/>
            <g transform="translate(85.312 169.931)">
                <mask id="j" fill="#fff">
                    <use xlink:href="#i"/>
                </mask>
                <path fill="#2E3343" d="M5.255 3.502V0H.12V3.502a2.567 2.567 0 0 0 5.135 0" mask="url(#j)"/>
            </g>
            <path fill="#2E3343" d="M112.276 170.398a2.567 2.567 0 1 1 0 5.135 2.567 2.567 0 0 1 0-5.135M118.345 170.398a2.567 2.567 0 1 1 0 5.135 2.567 2.567 0 0 1 0-5.135"/>
            <g transform="translate(121.726 169.931)">
                <mask id="l" fill="#fff">
                    <use xlink:href="#k"/>
                </mask>
                <path fill="#2E3343" d="M5.255 3.502V0H.12V3.502a2.567 2.567 0 0 0 5.134 0" mask="url(#l)"/>
            </g>
            <path fill="#2E3343" d="M136.552 170.398a2.567 2.567 0 1 1 0 5.135 2.567 2.567 0 0 1 0-5.135"/>
            <g transform="translate(164.209 169.931)">
                <mask id="n" fill="#fff">
                    <use xlink:href="#m"/>
                </mask>
                <path fill="#2E3343" d="M5.255 3.502V0H.12V3.502a2.567 2.567 0 0 0 5.134 0" mask="url(#n)"/>
            </g>
            <path fill="#2E3343" d="M36.11 28.136c0 4.394-3.647 7.97-8.133 7.97H14.506c-4.486 0-8.134-3.576-8.134-7.97V14.34c0-1.372.356-2.665.983-3.794A8.083 8.083 0 0 1 9.84 7.82a8.201 8.201 0 0 1 4.664-1.443h13.475c4.484 0 8.131 3.573 8.131 7.965v13.795zM27.98.003H14.504c-6.567 0-12.13 4.34-13.91 10.27A14.075 14.075 0 0 0 0 14.34v13.795c0 7.91 6.508 14.342 14.504 14.342l6.737.001 6.738-.001c7.995 0 14.504-6.433 14.504-14.342V14.34c0-7.906-6.509-14.338-14.504-14.338zM169.628 28.136c0 4.394-3.648 7.97-8.134 7.97h-13.471c-4.486 0-8.133-3.576-8.133-7.97V14.34c0-1.372.356-2.665.982-3.794a8.084 8.084 0 0 1 2.485-2.728 8.203 8.203 0 0 1 4.664-1.443h13.475c4.484 0 8.132 3.573 8.132 7.965v13.795zM161.496.003H148.02c-6.567 0-12.13 4.34-13.909 10.27a14.075 14.075 0 0 0-.595 4.068v13.795c0 7.91 6.509 14.342 14.504 14.342l6.738.001 6.737-.001c7.995 0 14.504-6.433 14.504-14.342V14.34C176 6.435 169.492.003 161.496.003zM36.11 161.653c0 4.395-3.647 7.97-8.133 7.97l-6.736.001-6.735-.001c-4.486 0-8.134-3.576-8.134-7.97V147.86c0-1.373.356-2.665.983-3.795a8.082 8.082 0 0 1 2.485-2.727 8.201 8.201 0 0 1 4.664-1.444h13.475c4.484 0 8.131 3.573 8.131 7.966v13.794zm-8.131-28.132H14.504c-6.567 0-12.13 4.338-13.91 10.269A14.081 14.081 0 0 0 0 147.859v13.794c0 7.91 6.508 14.342 14.504 14.342l6.737.002 6.738-.002c7.995 0 14.504-6.432 14.504-14.342v-13.794c0-7.906-6.509-14.338-14.504-14.338z"/>
            <mask id="p" fill="#fff">
                <use xlink:href="#o"/>
            </mask>
            <path fill="#2E3343" d="M12.138 30.345h18.207V12.138H12.138zM145.655 30.345h18.207V12.138h-18.207zM12.138 163.862h18.207v-18.207H12.138z" mask="url(#p)"/>
        </g>
        <path fill="url(#q)" d="M60.291 82.739c0-15.497 12.563-28.06 28.06-28.06 15.497 0 28.06 12.563 28.06 28.06 0 15.496-12.563 28.06-28.06 28.06-15.497 0-28.06-12.564-28.06-28.06"/>
        <path fill="#3B4256" d="M103.126 80.024l-6.632 5.478 2.048 8.315c.293 1.174-.683 2.25-1.658 2.25-.293 0-.684-.098-.976-.291l-7.315-4.5-7.22 4.5a1.656 1.656 0 0 1-.975.291c-1.074 0-2.05-.976-1.658-2.25l2.048-8.315-6.535-5.478c-1.269-1.077-.488-3.033 1.073-3.13l8.485-.587 3.22-7.924c.293-.784.976-1.077 1.659-1.077.682 0 1.365.39 1.658 1.077l3.22 7.924 8.485.586c1.66.098 2.342 2.153 1.073 3.13"/>
    </g>
</svg>
