<svg xmlns="http://www.w3.org/2000/svg" xmlns:xlink="http://www.w3.org/1999/xlink" width="327" height="282" viewBox="0 0 327 282">
    <defs>
        <linearGradient id="c" x1="99.619%" x2=".099%" y1="50.038%" y2="50.038%">
            <stop offset=".09%" stop-color="#F93E56"/>
            <stop offset="99.975%" stop-color="#FE6561"/>
        </linearGradient>
        <path id="b" d="M155 37h111c7.732 0 14 6.268 14 14v64.44c0 7.732-6.268 14-14 14H161L141 142V51c0-7.732 6.268-14 14-14z"/>
        <filter id="a" width="132.4%" height="142.9%" x="-16.2%" y="-21.4%" filterUnits="objectBoundingBox">
            <feOffset in="SourceAlpha" result="shadowOffsetOuter1"/>
            <feGaussianBlur in="shadowOffsetOuter1" result="shadowBlurOuter1" stdDeviation="7.5"/>
            <feColorMatrix in="shadowBlurOuter1" values="0 0 0 0 0 0 0 0 0 0 0 0 0 0 0 0 0 0 0.221297554 0"/>
        </filter>
    </defs>
    <g fill="none" fill-rule="evenodd">
        <g>
            <rect width="123" height="210" x="79" y="72" fill="#2E3343" rx="7"/>
            <path fill="#3B4256" d="M91 85h100v159H91z"/>
            <circle cx="141" cy="262" r="8" fill="#2A2E3E"/>
            <use fill="#000" filter="url(#a)" xlink:href="#b"/>
            <use fill="url(#c)" xlink:href="#b"/>
            <path fill="#2E3343" d="M313 165h-62c-7.732 0-14 6.268-14 14v31.866c0 7.732 6.268 14 14 14h63.05L327 233v-54c0-7.732-6.268-14-14-14zM14 85h33c7.732 0 14 6.268 14 14v12.498c0 7.732-6.268 14-14 14H8.777L0 131V99c0-7.732 6.268-14 14-14zM93 0H47c-7.732 0-14 6.268-14 14v21.301c0 7.732 6.268 14 14 14h49.353L107 56V14c0-7.732-6.268-14-14-14z"/>
            <g fill="#585E6F" fill-rule="nonzero">
                <path d="M83.613 23.944h.391a2.496 2.496 0 0 0 2.49-2.489c0-1.35-1.138-2.489-2.49-2.489h-7.928c-.463 0-.783-.39-.712-.853.534-3.449 1.245-4.622 1.6-8.178.356-3.449-4.55-4.018-5.262-.853-1.315 5.938-6.222 9.92-7.858 11.093-.32.25-.533.605-.533 1.031V35.43c0 .497.32.96.782 1.173 1.743.747 3.734 2.382 9.565 2.382h9.138a2.496 2.496 0 0 0 2.488-2.489 2.496 2.496 0 0 0-2.488-2.489h.32c1.28 0 2.417-.889 2.56-2.169.213-1.528-.996-2.844-2.49-2.844h.285c1.28 0 2.418-.889 2.56-2.169a2.47 2.47 0 0 0-2.418-2.88zM60.396 20.511H54.28c-.711 0-1.28.569-1.28 1.28v13.191c0 .711.569 1.28 1.28 1.28h6.151c.711 0 1.28-.569 1.28-1.28v-13.19c-.035-.712-.604-1.28-1.315-1.28z"/>
            </g>
            <path fill="#FFF" fill-rule="nonzero" d="M232.018 69c-7.244 0-14.914 5.202-19.515 9.1h-.003c-4.6-3.898-12.273-9.1-19.518-9.1C185.812 69 180 74.82 180 81.989c0 7.169 5.812 13.006 12.982 13.006 7.243 0 14.914-5.197 19.515-9.096h.003C217.1 89.8 224.773 95 232.018 95 239.188 95 245 89.17 245 82.001 245 74.833 239.188 69 232.018 69zm-39.036 20.418c-4.04 0-7.327-3.328-7.327-7.42 0-4.088 3.287-7.416 7.327-7.416 7.168 0 15.294 7.417 15.294 7.417s-8.126 7.419-15.294 7.419zm39.036 0c-7.168 0-15.294-7.417-15.294-7.417s8.126-7.419 15.294-7.419c4.04 0 7.327 3.328 7.327 7.42 0 4.089-3.287 7.416-7.327 7.416z"/>
            <path fill="#F93E56" d="M152.359 163.055l-5.7 4.761 1.76 7.228c.252 1.021-.587 1.956-1.425 1.956-.252 0-.588-.085-.838-.255l-6.288-3.912-6.204 3.912a1.4 1.4 0 0 1-.838.255c-.923 0-1.761-.85-1.425-1.956l1.76-7.228-5.616-4.761c-1.091-.935-.42-2.636.922-2.722l7.292-.509 2.768-6.888c.251-.68.838-.936 1.425-.936.586 0 1.173.34 1.425.936l2.767 6.888 7.293.51c1.426.085 2.013 1.87.922 2.72"/>
        </g>
        <path fill="#585E6F" fill-rule="nonzero" d="M280 207.629c.605.495 1.512.495 2.015 0l12.492-12.275a8.321 8.321 0 0 0 0-11.88c-1.713-1.583-3.828-2.474-6.044-2.474-2.217 0-4.332.792-6.045 2.475l-1.41 1.386-1.41-1.386a8.707 8.707 0 0 0-6.044-2.475c-2.317 0-4.534.89-6.246 2.574-3.224 3.366-3.022 8.612.302 11.879L280 207.629z"/>
        <path fill="#585E6F" d="M30 117c6.627 0 12-5.373 12-12s-5.373-12-12-12-12 5.373-12 12 5.373 12 12 12z"/>
        <path fill="#383F52" d="M34.2 103.8a1.5 1.5 0 1 0 0-3 1.5 1.5 0 0 0 0 3zM25.8 103.8a1.5 1.5 0 1 0 0-3 1.5 1.5 0 0 0 0 3zM29.911 108.3a7.035 7.035 0 0 1 5.556 2.71.9.9 0 0 0 1.418-1.11 8.835 8.835 0 0 0-6.974-3.4 8.828 8.828 0 0 0-6.58 2.932.9.9 0 0 0 1.338 1.204 7.029 7.029 0 0 1 5.242-2.336z"/>
    </g>
</svg>
